<?xml version="1.0" encoding="UTF-8" standalone="no"?>
<!-- Created with Inkscape (http://www.inkscape.org/) -->

<svg
   width="621.61609"
   height="57.008579"
   viewBox="0 0 621.61609 57.008579"
   version="1.1"
   id="svg4452"
   inkscape:version="1.3 (0e150ed6c4, 2023-07-21)"
   xml:space="preserve"
   sodipodi:docname="divider.svg"
   xmlns:inkscape="http://www.inkscape.org/namespaces/inkscape"
   xmlns:sodipodi="http://sodipodi.sourceforge.net/DTD/sodipodi-0.dtd"
   xmlns="http://www.w3.org/2000/svg"
   xmlns:svg="http://www.w3.org/2000/svg"><sodipodi:namedview
     id="namedview4454"
     pagecolor="#ffffff"
     bordercolor="#666666"
     borderopacity="1.0"
     inkscape:showpageshadow="2"
     inkscape:pageopacity="0.0"
     inkscape:pagecheckerboard="0"
     inkscape:deskcolor="#d1d1d1"
     inkscape:document-units="px"
     showgrid="true"
     inkscape:zoom="3.2721367"
     inkscape:cx="272.29914"
     inkscape:cy="67.08155"
     inkscape:window-width="3840"
     inkscape:window-height="2089"
     inkscape:window-x="-8"
     inkscape:window-y="-8"
     inkscape:window-maximized="1"
     inkscape:current-layer="layer1"><inkscape:grid
       type="xygrid"
       id="grid4456"
       originx="-84.383883"
       originy="-173.88004"
       spacingy="1"
       spacingx="1"
       units="px"
       visible="true"
       empspacing="10" /></sodipodi:namedview><defs
     id="defs4449" /><g
     inkscape:label="Layer 1"
     inkscape:groupmode="layer"
     id="layer1"
     transform="translate(-84.383883,-173.88004)"><path
       style="fill:#000000"
       d="m 88.326529,229.52989 c -3.175333,-2.24416 -4.745306,-7.73095 -3.38848,-11.84218 C 86.190141,213.89384 91.874558,208.08426 97,205.36018 l 3.5,-1.86018 -7,-0.57341 c -3.85,-0.31538 -5.36875,-0.65288 -3.375,-0.75 1.99375,-0.0971 5.031895,-0.45797 6.751433,-0.80188 l 3.126437,-0.62528 -3.751437,-1.98004 c -5.485081,-2.89506 -8.277882,-5.72383 -10.473372,-10.60826 -2.162079,-4.81009 -1.862986,-7.51215 1.272791,-11.49865 2.875468,-3.65556 8.209943,-3.72028 10.563594,-0.12816 1.288889,1.9671 1.421107,3.03024 0.590733,4.75 -1.024805,2.12245 -1.072666,2.09264 -1.137499,-0.70863 L 97,177.65137 l -2.25,2.10019 c -1.2375,1.1551 -3.4875,2.40732 -5,2.78272 -2.043165,0.5071 -2.75,1.29725 -2.75,3.07413 0,2.91002 0.425966,2.96562 3,0.39159 2.171507,-2.17151 4.641267,-2.52433 7,-1 1.311913,0.84782 1.3,0.97129 -0.09501,0.98469 C 94.695396,186.0059 92,189.21733 92,191.82874 c 0,2.72496 1.653535,2.83824 2.5,0.17126 0.356027,-1.12174 1.513034,-2 2.634775,-2 1.572127,0 1.858422,0.44607 1.338223,2.08508 -0.877458,2.76462 2.736492,6.60072 7.452742,7.91086 2.21426,0.61511 31.25559,0.99503 76.32426,0.99848 72.08519,0.006 72.75,-0.0127 72.75,-1.99442 0,-1.11111 0.66667,-2 1.5,-2 0.83333,0 1.5,0.88889 1.5,2 0,3.02257 1.82148,2.39694 2.18358,-0.75 0.17403,-1.5125 0.76642,-2.75 1.31642,-2.75 0.55,0 1.14239,1.2375 1.31642,2.75 0.3621,3.14694 2.18358,3.77257 2.18358,0.75 0,-1.11111 0.66667,-2 1.5,-2 0.83333,0 1.5,0.88889 1.5,2 0,1.1 0.45,2 1,2 0.55,0 1,0.675 1,1.5 0,0.825 -0.45,1.5 -1,1.5 -0.55,0 -1,0.9 -1,2 0,1.1 -0.49213,2 -1.09362,2 -0.60149,0 -1.32897,-0.9 -1.61663,-2 -0.72954,-2.78974 -2.09483,-2.49658 -2.47333,0.53109 -0.17403,1.3921 -0.76642,2.53109 -1.31642,2.53109 -0.55,0 -1.14239,-1.13899 -1.31642,-2.53109 C 259.80981,203.54126 258,203.10108 258,206 c 0,1.11111 -0.66667,2 -1.5,2 -0.83333,0 -1.5,-0.88889 -1.5,-2 0,-1.98219 -0.66118,-1.99985 -74.25,-1.98355 l -74.25,0.0165 -4,2.29356 c -3.432587,1.9682 -3.979084,2.74606 -3.852552,5.48355 0.170834,3.69594 -1.914972,4.33573 -3.879521,1.18999 C 93.161834,210.42824 92,210.44828 92,213.04775 c 0,1.12626 1.19071,3.15126 2.646023,4.5 L 97.292045,220 H 94.268467 C 92.6055,220 90.684689,219.325 90,218.5 c -1.801931,-2.17119 -3.189236,-1.84071 -2.819551,0.67167 0.204751,1.39149 1.397318,2.51613 3.319551,3.13049 1.65,0.52735 3.7875,1.64484 4.75,2.48332 1.603764,1.3971 1.752541,1.32353 1.780409,-0.88049 0.02792,-2.20796 0.119023,-2.25249 1.112052,-0.54355 0.845806,1.45557 0.654085,2.43673 -0.879305,4.5 -2.324332,3.12751 -5.921828,3.79916 -8.936627,1.66845 z M 694,229 c -1.1,-1.1 -1.98405,-3.0125 -1.96456,-4.25 l 0.0354,-2.25 1.31255,2.36734 c 1.09351,1.97228 1.41578,2.09832 1.93116,0.75527 0.34023,-0.88664 2.43364,-2.3383 4.65201,-3.22592 4.16221,-1.66538 4.46782,-2.10106 3.40913,-4.85997 -0.54682,-1.42498 -0.80203,-1.37308 -2.05671,0.41821 -0.92206,1.31647 -2.5431,2.04507 -4.55,2.04507 h -3.11761 l 2.02555,-2.25 c 2.92279,-3.24667 3.408,-4.36512 2.69724,-6.21733 -0.53607,-1.39699 -0.80676,-1.29657 -1.77827,0.65976 -0.63028,1.26916 -2.18223,2.45596 -3.44879,2.63732 -2.07623,0.29731 -2.18893,0.11692 -1.14526,-1.83318 0.94786,-1.7711 0.82609,-2.53521 -0.67214,-4.21777 C 687.03485,203.95551 687.79529,204 609.64875,204 c -72.57448,0 -73.42148,0.0229 -73.9385,2 -0.28766,1.1 -1.01514,2 -1.61663,2 C 533.49213,208 533,207.1 533,206 c 0,-3.13558 -1.68195,-2.34027 -2.37456,1.12281 -0.5277,2.63851 -0.85725,2.92969 -2.125,1.87755 C 527.6752,208.31547 527,206.91021 527,205.87756 527,204.8449 526.55,204 526,204 c -0.55,0 -1,0.9 -1,2 0,1.1 -0.49213,2 -1.09362,2 -0.60149,0 -1.32897,-0.9 -1.61663,-2 -0.28766,-1.1 -0.92053,-2 -1.40638,-2 C 520.39752,204 520,203.325 520,202.5 c 0,-0.825 0.39752,-1.5 0.88337,-1.5 0.48585,0 1.11872,-0.9 1.40638,-2 0.67854,-2.59474 2.71025,-2.59474 2.71025,0 0,2.74017 1.78484,2.53553 2.18045,-0.25 0.17575,-1.2375 0.99455,-2.25 1.81955,-2.25 0.825,0 1.6438,1.0125 1.81955,2.25 0.39561,2.78553 2.18045,2.99017 2.18045,0.25 0,-2.59474 2.03171,-2.59474 2.71025,0 0.51706,1.97726 1.35472,1.99975 73.65638,1.97804 69.59458,-0.0209 73.33512,-0.11356 77.30269,-1.91499 4.88257,-2.21687 7.10368,-5.42671 5.27763,-7.62697 C 690.97653,190.2668 691.13889,190 692.82085,190 c 1.13616,0 2.71928,0.93305 3.51804,2.07344 0.80977,1.15611 1.72286,1.63566 2.06386,1.08392 1.04379,-1.68889 -1.25855,-6.16706 -3.63821,-7.07648 -2.22911,-0.8519 -2.22065,-0.87686 0.54082,-1.59546 2.15441,-0.56063 3.33182,-0.23544 5.07419,1.40142 1.24785,1.1723 2.57294,1.82734 2.94464,1.45564 1.66627,-1.66627 0.34,-3.5575 -3.71314,-5.29488 -2.41393,-1.03473 -4.6126,-2.48124 -4.88593,-3.21446 -0.32237,-0.86476 -0.86612,-0.4548 -1.54766,1.16686 l -1.05069,2.5 -0.0634,-2.59501 c -0.0349,-1.42726 0.75954,-3.33976 1.76535,-4.25 4.78579,-4.33108 12.17126,0.29452 12.17126,7.623 0,6.39869 -4.36585,11.75427 -13.45995,16.51127 -1.65318,0.86476 -1.18363,1.12795 3,1.68154 8.15429,1.07898 8.2971,1.29103 0.95995,1.42524 l -7,0.12805 4.5,2.56229 c 8.44374,4.80785 12,9.53201 12,15.94088 0,2.675 -0.76699,4.39358 -2.92308,6.54966 C 699.65746,231.49638 696.78817,231.78817 694,229 Z M 295.65519,214.54135 c -7.39813,-2.6378 -12.22677,-9.24321 -11.37875,-15.56573 0.68889,-5.136 3.22239,-8.59617 8.61542,-11.7666 4.19019,-2.46332 5.51512,-2.70702 14.60814,-2.68701 8.36198,0.0184 11.14662,0.45675 17,2.67601 24.33144,9.22506 26.88371,9.96721 34.5,10.03194 8.05556,0.0685 13.71458,-1.67375 17.7496,-5.46444 1.67093,-1.56977 2.57285,-1.84307 3.38899,-1.02693 0.81614,0.81614 0.53048,2.31357 -1.07335,5.62665 -2.61543,5.40275 -8.56302,8.77764 -15.65793,8.8849 -3.76777,0.057 -4.25886,0.2619 -2.74755,1.1466 3.22354,1.887 14.37394,1.19454 18.96445,-1.17774 10.73831,-5.54933 13.48113,-16.30837 6.11045,-23.969 -3.53189,-3.67082 -5.34733,-4.2633 -3.71444,-1.21223 1.5424,2.88201 0.33843,5.7254 -3.19879,7.55457 C 373.56588,190.31009 367,187.20398 367,182 c 0,-7.86463 15.58421,-10.09224 25.08082,-3.58506 l 3.3744,2.31218 3.52239,-2.31499 C 408.83264,171.93518 424,174.10997 424,182 c 0,3.21907 -2.54597,5.75919 -6.5814,6.56628 -5.56028,1.11206 -10.84278,-5.7421 -7.2186,-9.36628 0.93333,-0.93333 0.91111,-1.2 -0.1,-1.2 -2.0099,0 -7.90322,6.3678 -8.65111,9.34763 -2.01295,8.02022 3.98939,16.27037 13.9425,19.16382 5.96318,1.73354 12.65662,1.46125 15.60861,-0.63496 1.25368,-0.89024 1.20691,-0.97052 -0.28482,-0.48885 -0.98165,0.31697 -4.13165,0.0736 -7,-0.54073 C 417.03785,203.4167 411,197.84701 411,193.11765 c 0,-3.46719 1.05959,-3.96018 3.12756,-1.45513 2.57514,3.1194 10.00436,5.62713 16.84719,5.68676 7.75316,0.0676 12.92226,-1.25396 27.22293,-6.95978 12.98709,-5.18172 20.80031,-6.82402 29.24154,-6.14644 18.13684,1.45585 25.81434,16.7928 13.56564,27.09939 -8.13425,6.84453 -23.75569,5.87495 -29.83346,-1.85168 -2.81932,-3.58419 -2.74332,-6.00976 0.28315,-9.03622 3.16602,-3.16603 9.38226,-3.39734 12.051,-0.44842 2.4995,2.76192 1.20316,3.58692 -2.6806,1.70596 -6.28761,-3.04518 -9.85092,2.41579 -4.84361,7.4231 3.21469,3.21469 6.61267,3.64324 10.98002,1.38479 7.66792,-3.96523 9.20586,-11.2861 3.55753,-16.93443 -5.34644,-5.34644 -12.83261,-6.81153 -21.01889,-4.11355 l -4,1.31829 5.21505,0.10486 c 5.70353,0.11467 13.95248,2.4908 16.22543,4.67378 2.41339,2.31786 0.60954,2.56 -4.03594,0.54178 -11.0924,-4.81909 -21.34112,-3.40829 -34.85149,4.79754 -4.56326,2.77159 -10.82892,5.98664 -13.9237,7.14454 -11.53399,4.31542 -25.69325,3.51218 -34.29957,-1.94578 l -4.41993,-2.80304 -3.45492,2.37664 c -7.52119,5.17381 -19.34956,6.66996 -30.26163,3.82772 -6.53323,-1.70169 -12.97891,-4.79755 -21.62929,-10.38856 -10.15286,-6.56211 -21.1168,-7.46717 -32.55625,-2.68746 -3.47473,1.45184 -5.5679,0.67164 -3.24675,-1.21018 2.4384,-1.97688 10.90073,-4.22267 16.02394,-4.25254 4.46493,-0.026 4.92738,-0.19894 3.21505,-1.20212 -1.1,-0.64444 -5.15,-1.19325 -9,-1.21959 -5.65966,-0.0387 -7.72268,0.40143 -10.77424,2.29866 C 299.63436,193.39027 297,197.49076 297,201.31548 297,205.89832 303.85292,212 309,212 c 5.58304,0 10.08488,-5.10437 7.97644,-9.04402 -1.38634,-2.5904 -3.31053,-2.93457 -6.84263,-1.22392 -3.84739,1.86334 -5.1291,1.0252 -2.63936,-1.72593 2.66874,-2.94892 8.88498,-2.71761 12.051,0.44842 3.02647,3.02646 3.10247,5.45203 0.28315,9.03622 -4.58996,5.83519 -15.55029,8.12515 -24.17341,5.05058 z m 5.75611,-2.4323 c -10.1417,-6.18434 -9.6978,-17.93296 0.88388,-23.39355 2.08735,-1.07716 3.58322,-2.17043 3.32415,-2.4295 -1.13493,-1.13493 -12.14693,3.08775 -14.69362,5.63445 -4.87832,4.87831 -4.83163,13.13975 0.0995,17.60234 2.09923,1.89977 8.49785,4.36981 11.47482,4.42958 1.59353,0.032 1.37227,-0.34263 -1.0887,-1.84332 z m 191.80765,0.84694 c 10.65495,-2.95917 14.17549,-13.71539 6.87767,-21.01321 -2.58142,-2.58143 -13.57693,-6.7958 -14.72782,-5.64491 -0.2656,0.2656 1.22433,1.31973 3.31095,2.34252 10.24105,5.0198 11.1222,18.24791 1.55211,23.30083 -4.10688,2.16839 -2.78439,2.61767 2.98709,1.01477 z M 372.16409,200.33617 c 5.29914,-3.09486 4.48531,-4.39192 -1.35534,-2.16012 -4.26763,1.63073 -6.87767,1.93647 -13.30875,1.55902 -4.4,-0.25825 -8.9,-0.82598 -10,-1.26164 -1.1,-0.43565 -1.72651,-0.4844 -1.39223,-0.10833 0.33427,0.37607 3.03427,1.58404 6,2.68437 6.4841,2.4057 15.24964,2.09396 20.05632,-0.7133 z M 441,200.0664 c 2.475,-1.16621 3.6,-1.8235 2.5,-1.46063 -1.1,0.36287 -5.6,0.87105 -10,1.1293 -6.40727,0.37605 -9.04523,0.0701 -13.25,-1.53669 -5.15888,-1.97141 -6.69939,-1.64616 -3.75948,0.79376 5.25845,4.36412 16.48341,4.85612 24.50948,1.07426 z"
       id="path1" /></g></svg>
