<?xml version="1.0" encoding="UTF-8" standalone="no"?>
<!-- Created with Inkscape (http://www.inkscape.org/) -->

<svg
   width="198.8902mm"
   height="16.73387mm"
   viewBox="0 0 198.8902 16.73387"
   version="1.1"
   id="svg1"
   inkscape:version="1.3 (0e150ed6c4, 2023-07-21)"
   sodipodi:docname="header-text-white.svg"
   xmlns:inkscape="http://www.inkscape.org/namespaces/inkscape"
   xmlns:sodipodi="http://sodipodi.sourceforge.net/DTD/sodipodi-0.dtd"
   xmlns="http://www.w3.org/2000/svg"
   xmlns:svg="http://www.w3.org/2000/svg">
  <sodipodi:namedview
     id="namedview1"
     pagecolor="#ffffff"
     bordercolor="#666666"
     borderopacity="1.0"
     inkscape:showpageshadow="2"
     inkscape:pageopacity="0.0"
     inkscape:pagecheckerboard="0"
     inkscape:deskcolor="#d1d1d1"
     inkscape:document-units="mm"
     inkscape:zoom="1.122532"
     inkscape:cx="378.16294"
     inkscape:cy="134.0719"
     inkscape:window-width="3840"
     inkscape:window-height="2089"
     inkscape:window-x="-8"
     inkscape:window-y="-8"
     inkscape:window-maximized="1"
     inkscape:current-layer="layer1"
     showgrid="false" />
  <defs
     id="defs1" />
  <g
     inkscape:label="Layer 1"
     inkscape:groupmode="layer"
     id="layer1"
     transform="translate(-5.5546997,-102.10901)">
    <path
       id="path23"
       style="font-size:19.05px;line-height:1.25;font-family:'Old English Text MT';-inkscape-font-specification:'Old English Text MT';stroke-width:0.264583;fill:#eeeeee;fill-opacity:1"
       d="m 111.19476,102.10901 c -0.91777,0.46509 -1.74873,0.69763 -2.49287,0.69763 -0.36587,0 -0.85886,-0.0868 -1.47898,-0.26044 -0.62012,-0.17984 -1.0542,-0.26976 -1.30224,-0.26976 -0.41548,0 -0.82786,0.12403 -1.23714,0.37207 -0.40928,0.24185 -0.75034,0.58912 -1.02319,1.0418 -0.17363,0.30386 -0.31006,0.74104 -0.40928,1.31155 h 0.47439 c 0.0868,-0.48369 0.21704,-0.81546 0.39068,-0.99529 0.17983,-0.18603 0.37827,-0.27905 0.59531,-0.27905 0.11782,0 0.35347,0.0341 0.70693,0.10232 0.90537,0.16123 1.46348,0.24184 1.67432,0.24184 0.24184,0 0.71003,-0.11161 1.40456,-0.33486 -0.70073,0.5271 -1.19992,1.03249 -1.49758,1.51619 -0.40927,0.67592 -0.61392,1.38596 -0.61392,2.1301 0,0.19844 0.009,0.44339 0.0279,0.73484 -0.31005,-0.031 -0.58291,-0.0465 -0.81856,-0.0465 -0.38447,0 -0.74723,0.0868 -1.0883,0.26045 -0.34106,0.16743 -0.61392,0.40308 -0.81856,0.70693 -0.13022,0.20464 -0.23254,0.5085 -0.30695,0.91157 l 0.34416,0.10232 c 0.17983,-0.32246 0.35967,-0.5395 0.5395,-0.65112 0.17984,-0.11782 0.42478,-0.17673 0.73484,-0.17673 0.5023,0 0.88677,0.14573 1.15342,0.43718 0.27286,0.28525 0.42479,0.80305 0.45579,1.55339 -0.39688,0.031 -0.71314,0.11472 -0.94878,0.25115 -0.30386,0.17983 -0.5302,0.39687 -0.67903,0.65112 -0.14884,0.25425 -0.25116,0.62632 -0.30696,1.11622 h 0.40928 c 0.22944,-0.5333 0.5302,-0.79996 0.90227,-0.79996 0.19844,0 0.35657,0.062 0.47439,0.18604 0.11783,0.12403 0.17673,0.29456 0.17673,0.5116 0,0.28525 -0.0806,0.57671 -0.24184,0.87436 -0.16124,0.29766 -0.5147,0.72244 -1.0604,1.27434 -0.5395,0.54571 -0.88987,0.95808 -1.0511,1.23714 -0.15503,0.28525 -0.23255,0.57361 -0.23255,0.86506 0,0.24185 0.0713,0.44648 0.21394,0.61392 0.14263,0.16742 0.28836,0.25114 0.43719,0.25114 0.11782,0 0.22324,-0.0496 0.31626,-0.14883 0.093,-0.0992 0.13952,-0.22633 0.13952,-0.38137 0,-0.13642 -0.0527,-0.27905 -0.15813,-0.42788 -0.14883,-0.22324 -0.22324,-0.39378 -0.22324,-0.5116 0,-0.16743 0.0868,-0.35656 0.26045,-0.5674 0.22945,-0.27286 0.62632,-0.4961 1.19062,-0.66973 0.56431,-0.17983 1.20924,-0.26975 1.93477,-0.26975 0.64493,0 1.28055,0.0744 1.90686,0.22324 0.63252,0.14884 1.37356,0.40308 2.22312,0.76275 l 2.07429,-2.92076 -0.39997,-0.22324 c -0.24805,0.35968 -0.493,0.61392 -0.73484,0.76275 -0.23565,0.14882 -0.5054,0.22324 -0.80925,0.22324 -0.17364,0 -0.37517,-0.0124 -0.60462,-0.0372 -0.82475,-0.0806 -1.48208,-0.12092 -1.97197,-0.12092 -0.21084,0 -0.5302,0.009 -0.95808,0.0279 1.02319,-0.93018 1.92546,-1.5782 2.70681,-1.94406 0.78134,-0.36588 1.57199,-0.54881 2.37195,-0.54881 0.62632,0 1.32395,0.17983 2.09289,0.5395 -0.0682,0.5457 -0.19223,1.0108 -0.37207,1.39527 -0.17363,0.37827 -0.5612,0.93948 -1.16272,1.68362 -0.60151,0.73794 -0.97978,1.25574 -1.13481,1.55339 -0.14883,0.30386 -0.22324,0.56741 -0.22324,0.79065 0,0.32246 0.10231,0.59531 0.30695,0.81855 0.20464,0.22944 0.44959,0.34417 0.73484,0.34417 0.26665,0 0.493,-0.0775 0.67903,-0.23254 0.13643,-0.11162 0.20464,-0.25425 0.20464,-0.42789 0,-0.14262 -0.0403,-0.25424 -0.12092,-0.33486 -0.0806,-0.0806 -0.20154,-0.12092 -0.36277,-0.12092 -0.0682,0 -0.16434,0.0124 -0.28836,0.0372 -0.11782,0.031 -0.21084,0.0465 -0.27905,0.0465 -0.11163,0 -0.19845,-0.031 -0.26045,-0.093 -0.062,-0.062 -0.093,-0.13333 -0.093,-0.21394 0,-0.14883 0.0806,-0.32867 0.24185,-0.53951 0.16123,-0.21084 0.58911,-0.5891 1.28364,-1.13481 0.96738,-0.76274 1.64952,-1.39836 2.04639,-1.90686 0.27285,-0.34727 0.45269,-0.69763 0.5395,-1.0511 0.093,-0.35347 0.13953,-0.89297 0.13953,-1.6185 v -1.38597 c 0,-0.97358 -0.0651,-1.67431 -0.19534,-2.10219 -0.12402,-0.42788 -0.38137,-0.85577 -0.77205,-1.28365 -0.39067,-0.42788 -0.96738,-0.88367 -1.73012,-1.36736 l -3.62769,2.91146 v -1.92547 c 0,-0.72553 0.0589,-1.24954 0.17674,-1.572 0.11782,-0.32246 0.37207,-0.62942 0.76274,-0.92087 0.39067,-0.29145 0.99528,-0.57981 1.81384,-0.86506 l -0.17673,-0.39068 c -1.42007,0.44648 -2.40916,0.85266 -2.96726,1.21853 -0.55811,0.36587 -0.95189,0.78756 -1.18132,1.26504 -0.22324,0.4775 -0.33487,1.20923 -0.33487,2.19522 v 3.16259 c 0,0.93638 -0.0558,1.59681 -0.16743,1.98128 -0.10542,0.37827 -0.35967,0.78755 -0.76274,1.22783 -0.40308,0.43409 -0.98289,0.86507 -1.73943,1.29295 0.5457,-0.67593 0.89607,-1.22474 1.0511,-1.64642 0.16123,-0.42788 0.24184,-1.0263 0.24184,-1.79523 v -4.34393 c 0,-1.0852 0.15504,-1.86655 0.46509,-2.34404 0.47129,-0.72553 1.33636,-1.33325 2.59519,-1.82314 z m -97.947507,0.18604 -4.0648677,3.46955 v 4.27881 c 0,0.83716 -0.037207,1.35806 -0.1116211,1.5627 -0.074414,0.19844 -0.2914555,0.44649 -0.6511231,0.74414 -0.8557608,-1.14101 -1.2836426,-2.33784 -1.2836426,-3.59048 0,-0.97358 0.2418462,-1.88516 0.7255371,-2.73472 0.4898921,-0.85576 1.2495375,-1.61231 2.2789304,-2.26963 l -0.1860348,-0.28835 c -0.8743644,0.45269 -1.5719977,0.91468 -2.0928956,1.38596 -0.7317375,0.66973 -1.2991458,1.42937 -1.7022216,2.27893 -0.4030758,0.84336 -0.6046143,1.75493 -0.6046143,2.73472 0,1.5751 0.4929942,2.94866 1.4789795,4.12068 1.2402331,1.47588 2.930056,2.21382 5.0694578,2.21382 1.358056,0 2.567286,-0.33177 3.627686,-0.99529 0.868163,-0.54571 1.661915,-1.37977 2.38125,-2.50217 l -0.223242,-0.35347 c -0.694531,0.70073 -1.37046,1.21543 -2.027784,1.54409 -0.868163,0.44029 -1.74253,0.66042 -2.623095,0.66042 l -0.595313,-0.0279 v -6.02754 h 3.534668 l 1.013892,-1.78594 h -2.511475 l 3.209107,-3.24631 -0.232544,-0.27905 c -0.384473,0.0558 -0.706935,0.0837 -0.967383,0.0837 -0.502295,0 -1.013893,-0.0713 -1.53479,-0.21394 -0.514697,-0.14262 -1.150318,-0.39688 -1.906861,-0.76274 z m 108.318967,0.18603 -1.02319,1.0232 1.02319,1.01389 1.01389,-1.01389 z m 3.7114,0 -1.01389,1.0232 1.01389,1.01389 1.0232,-1.01389 z m 45.467,0.39068 c -0.4899,0.0186 -0.92398,0.11781 -1.30225,0.29765 -0.37207,0.17984 -0.79065,0.5147 -1.25574,1.00459 -0.44648,-0.4961 -0.95188,-0.82476 -1.51618,-0.98598 l -0.14883,0.18603 c 0.31006,0.24805 0.5302,0.47439 0.66042,0.67903 0.13023,0.19844 0.21705,0.40928 0.26045,0.63252 0.0434,0.21704 0.0651,0.60772 0.0651,1.17202 v 6.64146 c -0.006,0.66972 -0.0155,1.04179 -0.0279,1.11621 -0.0372,0.21704 -0.10542,0.40617 -0.20464,0.5674 -0.093,0.16123 -0.22634,0.29456 -0.39997,0.39998 v 0.20464 c 0.45888,0.13023 0.82785,0.27595 1.1069,0.43718 0.27906,0.16123 0.70074,0.48679 1.26504,0.97669 l 1.86036,-1.41387 -0.23255,-0.33486 -0.40928,0.33486 -1.0604,-0.79065 v -8.26926 c 0,-0.75034 0.0992,-1.30845 0.29766,-1.67432 0.20464,-0.37207 0.5519,-0.68522 1.0418,-0.93948 z m 3.79511,0.23254 -0.47439,2.00918 h 0.37207 l 1.28365,-2.00918 z m -155.590499,0.009 v 2.26963 l 2.464966,1.68362 c -0.353467,0.29766 -0.954981,0.56431 -1.804541,0.79995 v 4.87412 c 0,0.61392 -0.03411,1.0201 -0.10232,1.21853 -0.06201,0.19224 -0.204639,0.38448 -0.42788,0.57671 v 0.17673 c 0.651122,0.0806 1.258839,0.22945 1.823144,0.44649 0.564306,0.21704 1.21233,0.5643 1.944067,1.0418 0.446484,-0.37208 0.861964,-0.66663 1.246436,-0.88367 0.384472,-0.22324 0.970484,-0.48369 1.758032,-0.78135 v -6.26008 c 0,-0.42168 0.0186,-0.70073 0.05581,-0.83716 0.03721,-0.13643 0.117822,-0.28836 0.241846,-0.45579 v -0.38137 c -0.248048,0.10542 -0.434083,0.21704 -0.558106,0.33487 -0.117822,0.11782 -0.226343,0.29145 -0.325561,0.52089 z m -6.734473,0.80926 v 10.56679 c -0.768944,-0.10542 -1.420069,-0.29766 -1.953369,-0.57671 -0.5270988,-0.27905 -1.0604008,-0.70382 -1.5999022,-1.27434 0.9053698,-0.75034 1.5626962,-1.36735 1.9719722,-1.85105 0.19224,-0.21704 0.313162,-0.41858 0.362769,-0.60461 0.05581,-0.18603 0.08372,-0.5178 0.08372,-0.99529 v -4.31602 z m 0.427881,0.0744 c 0.601514,0.29766 1.110011,0.5116 1.525488,0.64182 0.42168,0.13023 0.958083,0.24184 1.609205,0.33486 l -3.134693,3.18121 z m 82.906568,0.10232 -2.595191,3.20911 v 0.40927 h 0.865064 v 5.32991 c 0,0.43408 -0.05271,0.76584 -0.15813,0.99529 -0.08062,0.17983 -0.244947,0.35346 -0.492993,0.5209 v 0.18603 c 0.886766,0.25425 1.680518,0.73794 2.38125,1.45108 l 2.046386,-1.63711 -0.232544,-0.27906 -0.595312,0.46509 -1.041797,-0.77204 v -6.26009 h 1.869653 v -1.0511 H 95.72594 l 0.09302,-2.56728 z m -53.606031,0.72554 c -0.130224,0 -0.248047,0.0589 -0.353467,0.17673 -0.105419,0.11162 -0.158129,0.26355 -0.158129,0.45579 0,0.20464 0.120922,0.41548 0.362768,0.63252 0.124023,0.11162 0.186035,0.22324 0.186035,0.33486 0,0.16743 -0.09612,0.32866 -0.288354,0.48369 -0.192237,0.14883 -0.461988,0.22324 -0.809253,0.22324 -0.31626,0 -0.648023,-0.0465 -0.995288,-0.13952 -0.483691,-0.13643 -1.122413,-0.37207 -1.916162,-0.70694 -0.334863,0.42789 -0.68523,0.76585 -1.051099,1.01389 -0.359668,0.24184 -0.858863,0.46199 -1.497583,0.66043 v 3.46955 l 2.037085,1.09761 -1.199927,1.5906 -0.84646,1.0511 c -0.179834,0.21084 -0.306958,0.35347 -0.381372,0.42788 -0.130224,0.12403 -0.195337,0.22324 -0.195337,0.29766 0,0.0682 0.03411,0.13642 0.10232,0.20464 0.06821,0.0682 0.136426,0.10232 0.204638,0.10232 0.07441,0 0.195337,-0.0651 0.362769,-0.19534 0.452685,-0.35347 0.970484,-0.5302 1.553393,-0.5302 0.378272,0 0.73484,0.0527 1.069703,0.15813 0.341063,0.10542 0.74104,0.29455 1.199926,0.56741 0.5333,-0.4899 1.010791,-0.83716 1.432471,-1.0418 0.421679,-0.20465 0.892969,-0.33177 1.413867,-0.38137 v -3.91604 l -2.148706,-1.12552 1.785938,-2.27893 c 0.316259,-0.40308 0.5302,-0.73174 0.641821,-0.98598 0.111621,-0.25425 0.167432,-0.5147 0.167432,-0.78135 0,-0.26045 -0.07131,-0.46818 -0.213941,-0.62322 -0.136426,-0.16122 -0.291455,-0.24184 -0.465088,-0.24184 z m -10.250537,1.46037 c -1.029393,0.5271 -1.683618,0.85576 -1.962671,0.98599 -0.384472,0.17363 -0.868165,0.36587 -1.451074,0.57671 v 5.3206 c 0,0.60772 -0.03721,1.00459 -0.111621,1.19063 -0.06821,0.17983 -0.20774,0.33176 -0.418579,0.45578 v 0.23255 c 0.731737,0.15502 1.296045,0.30386 1.69292,0.44648 0.396875,0.14263 0.902271,0.37827 1.516186,0.70694 l 3.01377,-2.1022 -0.204639,-0.27905 -1.460376,0.99528 -2.158008,-0.85576 v -1.69292 l 4.167188,-2.92075 z m 13.822412,0 -2.027783,1.63711 0.204639,0.30696 c 0.341064,-0.25425 0.567408,-0.38137 0.679028,-0.38137 0.09302,0 0.195338,0.0868 0.306958,0.26045 0.142627,0.22944 0.21394,0.60151 0.21394,1.11621 v 4.97644 l -0.725537,0.75344 1.665015,1.24644 1.637109,-1.24644 -0.716235,-0.75344 v -5.18108 l 1.469678,-1.23713 c 0.42788,0.29145 0.697632,0.5426 0.809253,0.75344 0.08062,0.15502 0.120923,0.50229 0.120923,1.04179 v 4.62298 l -0.679029,0.75344 1.646411,1.24644 1.627808,-1.24644 -0.706934,-0.75344 v -5.04155 l 1.488282,-1.37666 0.939477,0.80925 v 5.60896 c 0,0.39067 0.09922,0.75964 0.297656,1.10691 0.136426,0.23564 0.434083,0.5333 0.892969,0.89297 l 2.06499,-1.64642 -0.21394,-0.26975 c -0.32246,0.24805 -0.548804,0.37207 -0.679028,0.37207 -0.09302,0 -0.192237,-0.0837 -0.297657,-0.25114 -0.105419,-0.16744 -0.158129,-0.5054 -0.158129,-1.01389 v -3.86954 c 0,-0.57671 0.0186,-0.95808 0.05581,-1.14411 0.03721,-0.18604 0.114722,-0.37207 0.232544,-0.55811 0.124023,-0.18603 0.362769,-0.43408 0.716235,-0.74414 l -0.269751,-0.25115 -0.930175,0.88367 -1.525489,-1.42317 -2.613794,2.40916 c -0.03101,-0.4899 -0.139526,-0.89297 -0.325561,-1.20923 -0.186035,-0.31626 -0.582911,-0.71624 -1.190625,-1.19993 l -2.771924,2.30684 c 0,-0.47749 -0.0186,-0.79686 -0.05581,-0.95808 -0.06201,-0.22324 -0.170533,-0.42788 -0.325562,-0.61392 -0.148828,-0.19223 -0.434083,-0.43718 -0.855762,-0.73484 z m 16.222266,0 c -1.029393,0.5271 -1.683619,0.85576 -1.962671,0.98599 -0.384472,0.17363 -0.868164,0.36587 -1.451074,0.57671 v 5.3206 c 0,0.60772 -0.03721,1.00459 -0.111621,1.19063 -0.06821,0.17983 -0.20774,0.33176 -0.418579,0.45578 v 0.23255 c 0.731738,0.15502 1.296045,0.30386 1.69292,0.44648 0.396874,0.14263 0.902271,0.37827 1.516186,0.70694 l 3.01377,-2.1022 -0.204639,-0.27905 -1.460376,0.99528 -2.158008,-0.85576 v -1.69292 l 4.167188,-2.92075 z m 5.255493,0 -1.981274,1.5813 0.223242,0.26045 c 0.248046,-0.19223 0.434082,-0.28835 0.558105,-0.28835 0.117823,0 0.223243,0.0806 0.31626,0.24184 0.136426,0.23565 0.204639,0.69143 0.204639,1.36736 v 4.7532 l -0.725537,0.66972 1.655713,1.33016 1.646411,-1.33016 -0.669727,-0.66972 v -5.2927 l 1.506885,-1.19993 1.013891,0.87437 v 5.12526 c 0,0.66973 0.07131,1.15653 0.213941,1.46038 0.148828,0.29766 0.480591,0.64182 0.995288,1.0325 l 1.999878,-1.63711 -0.223242,-0.28836 c -0.322461,0.24185 -0.5271,0.36277 -0.613916,0.36277 -0.09922,0 -0.189137,-0.0651 -0.269751,-0.19534 -0.130225,-0.19844 -0.195337,-0.50229 -0.195337,-0.91157 v -4.41833 c 0,-0.4775 0.06201,-0.85267 0.186035,-1.12552 0.09302,-0.20464 0.356568,-0.50539 0.790649,-0.90227 l -0.260449,-0.25114 -0.90227,0.87436 -1.525489,-1.42317 -2.716113,2.15801 v -0.31626 c 0,-0.39687 -0.06821,-0.70694 -0.204639,-0.93018 -0.136425,-0.22324 -0.47749,-0.52709 -1.023193,-0.91157 z m 9.711035,0 -1.981274,1.5813 0.223242,0.26045 c 0.248046,-0.19223 0.434082,-0.28835 0.558105,-0.28835 0.117823,0 0.223243,0.0806 0.31626,0.24184 0.136426,0.23565 0.204639,0.69143 0.204639,1.36736 v 4.7532 l -0.725537,0.66972 1.655713,1.33016 1.646411,-1.33016 -0.669727,-0.66972 v -5.2927 l 1.506885,-1.19993 1.013892,0.87437 v 5.12526 c 0,0.66973 0.07131,1.15653 0.21394,1.46038 0.148828,0.29766 0.480591,0.64182 0.995288,1.0325 l 1.999878,-1.63711 -0.223242,-0.28836 c -0.32246,0.24185 -0.5271,0.36277 -0.613916,0.36277 -0.09922,0 -0.189136,-0.0651 -0.269751,-0.19534 -0.130225,-0.19844 -0.195337,-0.50229 -0.195337,-0.91157 v -4.41833 c 0,-0.4775 0.06201,-0.85267 0.186035,-1.12552 0.09302,-0.20464 0.356568,-0.50539 0.79065,-0.90227 l -0.26045,-0.25114 -0.90227,0.87436 -1.525488,-1.42317 -2.716114,2.15801 v -0.31626 c 0,-0.39687 -0.06821,-0.70694 -0.204638,-0.93018 -0.136426,-0.22324 -0.477492,-0.52709 -1.023194,-0.91157 z m 9.766846,0 -1.953369,1.62781 0.223242,0.30696 c 0.05581,-0.0496 0.09612,-0.0868 0.120923,-0.11162 0.167431,-0.16124 0.303857,-0.24185 0.409277,-0.24185 0.130225,0 0.251147,0.0868 0.362769,0.26045 0.142626,0.22325 0.21394,0.64493 0.21394,1.26504 v 4.44624 c 0,0.36587 -0.02481,0.65112 -0.07441,0.85576 -0.04961,0.19844 -0.142627,0.41548 -0.279053,0.65112 -0.04961,0.0868 -0.176733,0.23565 -0.381372,0.44649 -0.42788,0.43408 -0.641821,0.88057 -0.641821,1.33945 0,0.46509 0.192237,0.86507 0.576709,1.19993 0.384472,0.34106 0.933277,0.5116 1.646411,0.5116 0.682129,0 1.246436,-0.15503 1.69292,-0.46509 0.291455,-0.19224 0.437183,-0.38758 0.437183,-0.58601 0,-0.11162 -0.03721,-0.20154 -0.111621,-0.26975 -0.07441,-0.0682 -0.173633,-0.10232 -0.297657,-0.10232 -0.11162,0 -0.207739,0.031 -0.288354,0.093 -0.08061,0.062 -0.176733,0.19224 -0.288355,0.39068 -0.11162,0.20464 -0.226342,0.33797 -0.344165,0.39997 -0.241845,0.13023 -0.548803,0.19534 -0.920874,0.19534 -0.514696,0 -0.930176,-0.13642 -1.246435,-0.40928 -0.310059,-0.26664 -0.465088,-0.5581 -0.465088,-0.87436 0,-0.18604 0.04341,-0.35346 0.130224,-0.5023 0.117822,-0.20463 0.316261,-0.41547 0.595313,-0.63252 0.130224,-0.10542 0.524,-0.35657 1.181323,-0.75344 1.506883,-0.89917 2.598292,-1.6247 3.274219,-2.17661 0.675927,-0.55811 1.172021,-1.14412 1.488281,-1.75803 0.31626,-0.62012 0.47439,-1.24024 0.47439,-1.86035 0,-1.15342 -0.480592,-2.23553 -1.441773,-3.24632 l -2.818432,2.24173 v -0.20464 c 0,-0.46509 -0.08061,-0.83096 -0.241846,-1.09761 -0.155029,-0.26665 -0.499195,-0.5798 -1.032495,-0.93948 z m 36.314059,0 c -0.5581,0.58291 -1.20303,0.87437 -1.93476,0.87437 -0.11783,0 -0.29766,-0.0124 -0.5395,-0.0372 l -0.13023,0.26045 1.11621,2.38125 c -0.74414,0.86817 -1.26814,1.62781 -1.57199,2.27893 -0.22944,0.49609 -0.34417,1.02629 -0.34417,1.5906 0,0.84336 0.5302,1.69912 1.5906,2.56729 l 2.82774,-2.23243 c 0.0186,0.5271 0.10852,0.93948 0.26975,1.23714 0.16123,0.29145 0.48059,0.62321 0.95808,0.99529 l 2.07429,-1.71153 -0.20464,-0.30696 c -0.24185,0.19224 -0.38758,0.30387 -0.43718,0.33487 -0.0806,0.0372 -0.15813,0.0558 -0.23255,0.0558 -0.14262,0 -0.26665,-0.0806 -0.37207,-0.24185 -0.0992,-0.16742 -0.14882,-0.57981 -0.14882,-1.23713 v -3.96255 c 0,-0.47129 0.0434,-0.84336 0.13022,-1.11621 0.093,-0.27905 0.30695,-0.67903 0.64182,-1.19993 l -0.33486,-0.13022 c -0.16124,0.22945 -0.27595,0.36898 -0.34417,0.41858 -0.0682,0.0434 -0.16743,0.0651 -0.29765,0.0651 -0.28526,0 -0.69764,-0.0806 -1.23714,-0.24185 -0.5333,-0.16123 -1.02629,-0.37516 -1.47898,-0.64182 z m 6.95772,0 -2.02778,1.63711 0.20463,0.30696 c 0.34107,-0.25425 0.56741,-0.38137 0.67903,-0.38137 0.093,0 0.19534,0.0868 0.30696,0.26045 0.14263,0.22944 0.21394,0.60151 0.21394,1.11621 v 4.97644 l -0.72554,0.75344 1.66502,1.24644 1.63711,-1.24644 -0.71624,-0.75344 v -5.18108 l 1.46968,-1.23713 c 0.42788,0.29145 0.69763,0.5426 0.80925,0.75344 0.0806,0.15502 0.12093,0.50229 0.12093,1.04179 v 4.62298 l -0.67903,0.75344 1.64641,1.24644 1.62781,-1.24644 -0.70694,-0.75344 v -5.04155 l 1.48828,-1.37666 0.93948,0.80925 v 5.60896 c 0,0.39067 0.0992,0.75964 0.29766,1.10691 0.13642,0.23564 0.43408,0.5333 0.89297,0.89297 l 2.06499,-1.64642 -0.21394,-0.26975 c -0.32247,0.24805 -0.54881,0.37207 -0.67903,0.37207 -0.093,0 -0.19224,-0.0837 -0.29766,-0.25114 -0.10542,-0.16744 -0.15813,-0.5054 -0.15813,-1.01389 v -3.86954 c 0,-0.57671 0.0186,-0.95808 0.0558,-1.14411 0.0372,-0.18604 0.11472,-0.37207 0.23255,-0.55811 0.12402,-0.18603 0.36277,-0.43408 0.71623,-0.74414 l -0.26975,-0.25115 -0.93018,0.88367 -1.52548,-1.42317 -2.6138,2.40916 c -0.031,-0.4899 -0.13953,-0.89297 -0.32556,-1.20923 -0.18603,-0.31626 -0.58291,-0.71624 -1.19062,-1.19993 l -2.77193,2.30684 c 0,-0.47749 -0.0186,-0.79686 -0.0558,-0.95808 -0.062,-0.22324 -0.17053,-0.42788 -0.32556,-0.61392 -0.14883,-0.19223 -0.43408,-0.43718 -0.85576,-0.73484 z m 16.22226,0 c -1.02939,0.5271 -1.68361,0.85576 -1.96267,0.98599 -0.38447,0.17363 -0.86816,0.36587 -1.45107,0.57671 v 5.3206 c 0,0.60772 -0.0372,1.00459 -0.11162,1.19063 -0.0682,0.17983 -0.20774,0.33176 -0.41858,0.45578 v 0.23255 c 0.73174,0.15502 1.29605,0.30386 1.69292,0.44648 0.39688,0.14263 0.90227,0.37827 1.51619,0.70694 l 3.01376,-2.1022 -0.20463,-0.27905 -1.46038,0.99528 -2.15801,-0.85576 v -1.69292 l 4.16719,-2.92075 z m 7.54373,0 c -1.02939,0.5271 -1.68362,0.85576 -1.96267,0.98599 -0.38447,0.17363 -0.86817,0.36587 -1.45108,0.57671 v 5.3206 c 0,0.60772 -0.0372,1.00459 -0.11162,1.19063 -0.0682,0.17983 -0.20774,0.33176 -0.41858,0.45578 v 0.23255 c 0.73174,0.15502 1.29604,0.30386 1.69292,0.44648 0.39688,0.14263 0.90228,0.37827 1.51619,0.70694 l 3.01377,-2.1022 -0.20464,-0.27905 -1.46037,0.99528 -2.15801,-0.85576 v -1.69292 l 4.16719,-2.92075 z m 5.25549,0 -1.98127,1.5813 0.22324,0.26045 c 0.24805,-0.19223 0.43408,-0.28835 0.55811,-0.28835 0.11782,0 0.22324,0.0806 0.31626,0.24184 0.13642,0.23565 0.20463,0.69143 0.20463,1.36736 v 4.7532 l -0.72553,0.66972 1.65571,1.33016 1.64641,-1.33016 -0.66973,-0.66972 v -5.2927 l 1.50689,-1.19993 1.01389,0.87437 v 5.12526 c 0,0.66973 0.0713,1.15653 0.21394,1.46038 0.14883,0.29766 0.4806,0.64182 0.99529,1.0325 l 1.99988,-1.63711 -0.22324,-0.28836 c -0.32246,0.24185 -0.5271,0.36277 -0.61392,0.36277 -0.0992,0 -0.18914,-0.0651 -0.26975,-0.19534 -0.13023,-0.19844 -0.19534,-0.50229 -0.19534,-0.91157 v -4.41833 c 0,-0.4775 0.062,-0.85267 0.18604,-1.12552 0.093,-0.20464 0.35657,-0.50539 0.79065,-0.90227 l -0.26045,-0.25114 -0.90227,0.87436 -1.52549,-1.42317 -2.71612,2.15801 v -0.31626 c 0,-0.39687 -0.0682,-0.70694 -0.20463,-0.93018 -0.13643,-0.22324 -0.4775,-0.52709 -1.0232,-0.91157 z m 15.06885,0 -1.63711,1.36736 0.69763,0.71624 v 5.19038 c 0,0.78134 0.0713,1.33015 0.21394,1.64641 0.14263,0.31006 0.46199,0.64182 0.95808,0.99529 l 2.1115,-1.61851 -0.22324,-0.28835 c -0.27285,0.20464 -0.45268,0.32867 -0.5395,0.37207 -0.062,0.031 -0.13023,0.0465 -0.20464,0.0465 -0.10542,0 -0.20774,-0.0806 -0.30696,-0.24184 -0.0992,-0.16123 -0.14883,-0.50849 -0.14883,-1.0418 v -5.06015 l 0.73484,-0.71624 z m 5.33921,0 -1.98128,1.5813 0.22325,0.26045 c 0.24804,-0.19223 0.43408,-0.28835 0.5581,-0.28835 0.11783,0 0.22325,0.0806 0.31626,0.24184 0.13643,0.23565 0.20464,0.69143 0.20464,1.36736 v 4.7532 l -0.72554,0.66972 1.65572,1.33016 1.64641,-1.33016 -0.66973,-0.66972 v -5.2927 l 1.50689,-1.19993 1.01389,0.87437 v 5.12526 c 0,0.66973 0.0713,1.15653 0.21394,1.46038 0.14882,0.29766 0.48059,0.64182 0.99529,1.0325 l 1.99987,-1.63711 -0.22324,-0.28836 c -0.32246,0.24185 -0.5271,0.36277 -0.61391,0.36277 -0.0992,0 -0.18914,-0.0651 -0.26976,-0.19534 -0.13022,-0.19844 -0.19533,-0.50229 -0.19533,-0.91157 v -4.41833 c 0,-0.4775 0.062,-0.85267 0.18603,-1.12552 0.093,-0.20464 0.35657,-0.50539 0.79065,-0.90227 l -0.26045,-0.25114 -0.90227,0.87436 -1.52549,-1.42317 -2.71611,2.15801 v -0.31626 c 0,-0.39687 -0.0682,-0.70694 -0.20464,-0.93018 -0.13642,-0.22324 -0.47748,-0.52709 -1.02319,-0.91157 z m 9.71103,0 -1.98127,1.5813 0.22324,0.26045 c 0.24805,-0.19223 0.43409,-0.28835 0.55811,-0.28835 0.11782,0 0.22324,0.0806 0.31626,0.24184 0.13642,0.23565 0.20464,0.69143 0.20464,1.36736 v 4.7532 l -0.72554,0.66972 1.65571,1.33016 1.64641,-1.33016 -0.66972,-0.66972 v -5.2927 l 1.50688,-1.19993 1.01389,0.87437 v 5.12526 c 0,0.66973 0.0713,1.15653 0.21394,1.46038 0.14883,0.29766 0.48059,0.64182 0.99529,1.0325 l 1.99988,-1.63711 -0.22324,-0.28836 c -0.32246,0.24185 -0.52711,0.36277 -0.61392,0.36277 -0.0992,0 -0.18914,-0.0651 -0.26975,-0.19534 -0.13023,-0.19844 -0.19534,-0.50229 -0.19534,-0.91157 v -4.41833 c 0,-0.4775 0.062,-0.85267 0.18604,-1.12552 0.093,-0.20464 0.35657,-0.50539 0.79065,-0.90227 l -0.26045,-0.25114 -0.90227,0.87436 -1.52549,-1.42317 -2.71611,2.15801 v -0.31626 c 0,-0.39687 -0.0682,-0.70694 -0.20464,-0.93018 -0.13642,-0.22324 -0.47749,-0.52709 -1.0232,-0.91157 z m 11.24583,0 c -0.55811,0.58291 -1.20303,0.87437 -1.93477,0.87437 -0.11782,0 -0.29765,-0.0124 -0.5395,-0.0372 l -0.13022,0.26045 1.11621,2.38125 c -0.74414,0.86817 -1.26814,1.62781 -1.572,2.27893 -0.22944,0.49609 -0.34416,1.02629 -0.34416,1.5906 0,0.84336 0.5302,1.69912 1.5906,2.56729 l 2.82773,-2.23243 c 0.0186,0.5271 0.10853,0.93948 0.26975,1.23714 0.16124,0.29145 0.4806,0.62321 0.95808,0.99529 l 2.0743,-1.71153 -0.20464,-0.30696 c -0.24186,0.19224 -0.38759,0.30387 -0.43719,0.33487 -0.0806,0.0372 -0.15813,0.0558 -0.23254,0.0558 -0.14263,0 -0.26665,-0.0806 -0.37207,-0.24185 -0.0992,-0.16742 -0.14883,-0.57981 -0.14883,-1.23713 v -3.96255 c 0,-0.47129 0.0434,-0.84336 0.13023,-1.11621 0.093,-0.27905 0.30695,-0.67903 0.64182,-1.19993 l -0.33487,-0.13022 c -0.16122,0.22945 -0.27595,0.36898 -0.34416,0.41858 -0.0682,0.0434 -0.16743,0.0651 -0.29766,0.0651 -0.28525,0 -0.69763,-0.0806 -1.23713,-0.24185 -0.5333,-0.16123 -1.02629,-0.37516 -1.47898,-0.64182 z m -86.06917,0.12092 c 0.63872,0.35967 1.10382,0.71314 1.39527,1.06041 0.29145,0.34106 0.49299,0.74104 0.60461,1.19992 -0.41548,0.21084 -0.78135,0.35656 -1.0976,0.43718 -0.31006,0.0806 -0.67283,0.12093 -1.08831,0.12093 -0.69453,0 -1.44798,-0.16123 -2.26033,-0.48369 v -0.41858 z m -83.780928,0.94878 2.316138,2.56729 -2.446363,1.71152 v -4.21369 z m 30.044678,0 2.316137,2.56729 -2.446362,1.71152 v -4.21369 z m 84.22742,0 2.31613,2.56729 -2.44636,1.71152 v -4.21369 z m 7.54372,0 2.31614,2.56729 -2.44636,1.71152 v -4.21369 z m -130.047874,0.13023 1.906861,1.32085 v 5.87871 l -2.437061,-1.079 v -5.74849 c 0.179834,-0.10542 0.356567,-0.22944 0.5302,-0.37207 z m 98.570724,0 3.18121,0.97668 v 2.38125 l -2.04639,-0.95808 z m 77.34412,0 3.1812,0.97668 v 2.38125 l -2.04639,-0.95808 z m -160.659961,0.26975 c 0.719335,0.5085 1.460377,0.76274 2.22312,0.76274 0.303857,0 0.663526,-0.0589 1.079004,-0.17673 l -2.027783,2.69751 -1.274341,-0.66042 z m 51.838696,0.093 c 0.682129,0.79995 1.023194,1.61851 1.023194,2.45566 0,0.62012 -0.186035,1.27435 -0.558106,1.96267 -0.365868,0.68214 -0.985987,1.33946 -1.860351,1.97198 v -5.2834 z m 26.919285,1.30224 v 2.39056 c -0.48369,-0.19224 -0.88987,-0.32247 -1.21853,-0.39068 -0.32246,-0.0682 -0.67283,-0.10232 -1.0511,-0.10232 -0.68833,0 -1.41387,0.16433 -2.17661,0.493 v -2.33475 c 0.76894,0.30386 1.50689,0.45579 2.21382,0.45579 0.39067,0 0.74414,-0.0341 1.0604,-0.10232 0.31626,-0.0744 0.70693,-0.21084 1.17202,-0.40928 z m 5.48804,1.0232 2.25103,1.0511 v 2.28823 l -1.40457,1.13481 c -0.91157,-0.65112 -1.36736,-1.47897 -1.36736,-2.48357 0,-0.5705 0.17363,-1.23403 0.5209,-1.99057 z m 77.34412,0 2.25102,1.0511 v 2.28823 l -1.40456,1.13481 c -0.91158,-0.65112 -1.36736,-1.47897 -1.36736,-2.48357 0,-0.5705 0.17363,-1.23403 0.5209,-1.99057 z m -159.990239,1.0511 1.385962,0.74414 v 2.69751 c -0.768944,-0.4713 -1.509986,-0.70694 -2.22312,-0.70694 -0.192236,0 -0.406177,0.0217 -0.641821,0.0651 -0.235644,0.0434 -0.489893,0.11162 -0.762744,0.20464 z" />
  </g>
</svg>
