<?xml version="1.0" encoding="UTF-8" standalone="no"?>
<!-- Uploaded to: SVG Repo, www.svgrepo.com, Generator: SVG Repo Mixer Tools -->

<svg
   height="53.000004"
   width="100"
   version="1.1"
   id="Capa_1"
   viewBox="0 0 2.432625 1.2892913"
   xml:space="preserve"
   sodipodi:docname="icon-down.svg"
   inkscape:version="1.3 (0e150ed6c4, 2023-07-21)"
   xmlns:inkscape="http://www.inkscape.org/namespaces/inkscape"
   xmlns:sodipodi="http://sodipodi.sourceforge.net/DTD/sodipodi-0.dtd"
   xmlns="http://www.w3.org/2000/svg"
   xmlns:svg="http://www.w3.org/2000/svg"><defs
   id="defs1" /><sodipodi:namedview
   id="namedview1"
   pagecolor="#ffffff"
   bordercolor="#666666"
   borderopacity="1.0"
   inkscape:showpageshadow="2"
   inkscape:pageopacity="0.0"
   inkscape:pagecheckerboard="0"
   inkscape:deskcolor="#d1d1d1"
   inkscape:zoom="2.31375"
   inkscape:cx="400.4322"
   inkscape:cy="213.29011"
   inkscape:window-width="3840"
   inkscape:window-height="2089"
   inkscape:window-x="-8"
   inkscape:window-y="-8"
   inkscape:window-maximized="1"
   inkscape:current-layer="Capa_1" />&#10;<g
   id="g1"
   transform="matrix(0.125,0,0,-0.12428701,0,1.8539893)">&#10;	<path
   style="fill:#030104"
   d="m 19.461,14.274 c 0,0.168 -0.061,0.33 -0.18,0.445 l -0.014,0.012 c -0.119,0.117 -0.279,0.186 -0.447,0.186 h -4.418 c -0.166,0 -0.328,-0.067 -0.445,-0.186 L 9.73,10.504 5.504,14.731 C 5.387,14.848 5.225,14.917 5.057,14.917 H 0.642 c -0.164,0 -0.33,-0.067 -0.446,-0.186 L 0.185,14.72 C 0.059,14.599 0,14.435 0,14.275 0,14.113 0.059,13.949 0.185,13.83 L 9.284,4.728 c 0.246,-0.246 0.644,-0.246 0.895,0 l 9.103,9.101 c 0.116,0.113 0.179,0.281 0.179,0.445 z"
   id="path1" />&#10;</g>&#10;</svg>
