<?xml version="1.0" encoding="UTF-8" standalone="no"?>
<!-- Created with Inkscape (http://www.inkscape.org/) -->

<svg
   width="60.000027"
   height="30.000004"
   viewBox="0 0 60.000027 30.000003"
   version="1.1"
   id="svg4452"
   inkscape:version="1.3 (0e150ed6c4, 2023-07-21)"
   xml:space="preserve"
   sodipodi:docname="icon-right.svg"
   xmlns:inkscape="http://www.inkscape.org/namespaces/inkscape"
   xmlns:sodipodi="http://sodipodi.sourceforge.net/DTD/sodipodi-0.dtd"
   xmlns="http://www.w3.org/2000/svg"
   xmlns:svg="http://www.w3.org/2000/svg"><sodipodi:namedview
     id="namedview4454"
     pagecolor="#ffffff"
     bordercolor="#666666"
     borderopacity="1.0"
     inkscape:showpageshadow="2"
     inkscape:pageopacity="0.0"
     inkscape:pagecheckerboard="0"
     inkscape:deskcolor="#d1d1d1"
     inkscape:document-units="px"
     showgrid="true"
     inkscape:zoom="13.088547"
     inkscape:cx="29.567835"
     inkscape:cy="14.516508"
     inkscape:window-width="1269"
     inkscape:window-height="474"
     inkscape:window-x="442"
     inkscape:window-y="442"
     inkscape:window-maximized="0"
     inkscape:current-layer="layer1"><inkscape:grid
       type="xygrid"
       id="grid4456"
       originx="372.55689"
       originy="-121.61907"
       spacingy="1"
       spacingx="1"
       units="px"
       visible="true"
       empspacing="10" /></sodipodi:namedview><defs
     id="defs4449" /><g
     inkscape:label="Layer 1"
     inkscape:groupmode="layer"
     id="layer1"
     transform="translate(449.51853,-124.11879)"><path
       style="fill:#000000;stroke-width:0.999999"
       d="m -418.64385,154.0341 c 0,-0.0837 0.28742,-0.6907 0.63871,-1.34909 0.95291,-1.78594 0.93657,-4.58125 -0.0368,-6.30827 -3.37712,-5.9915 -13.27605,-6.92876 -18.12294,-1.71596 -1.39649,1.50191 -1.43196,1.79139 -0.24247,1.97835 2.26234,0.35559 3.06022,3.33618 1.2647,4.72444 -1.82091,1.4079 -5.35287,0.35144 -6.39961,-1.91422 -0.53936,-1.16745 -0.57522,-3.13226 -0.0745,-4.08395 1.08491,-2.06218 -0.9488,-5.12142 -3.40459,-5.12142 -1.41441,0 -1.60171,0.18113 -1.08186,1.04616 1.09601,1.82374 -1.37202,3.77238 -2.88915,2.28112 -0.87314,-0.85823 -0.64369,-2.20685 0.56994,-3.34987 l 1.03685,-0.97653 -1.03685,-1.01916 c -1.25103,-1.22969 -1.43534,-2.46731 -0.49653,-3.33423 1.53299,-1.41559 3.82287,0.39635 2.87103,2.2718 -0.50744,0.99984 -0.29036,1.19907 1.17622,1.07952 2.53458,-0.2066 4.22293,-2.97769 3.23305,-5.30641 -0.43823,-1.03091 -0.45173,-2.91534 -0.0278,-3.88636 1.29359,-2.96331 6.04167,-3.69854 7.28277,-1.12773 0.73183,1.51592 0.0376,2.98691 -1.71009,3.62349 -0.6101,0.22222 -1.14752,0.43192 -1.19426,0.46598 -0.21384,0.15587 1.03685,1.76944 1.91324,2.46834 5.51951,4.40174 14.48999,2.99333 17.43146,-2.73685 0.87228,-1.69925 0.83726,-4.30071 -0.0827,-6.14223 -0.36647,-0.73358 -0.61223,-1.38694 -0.54614,-1.4519 0.19935,-0.19596 4.12739,0.59826 5.99819,1.21275 3.38519,1.11196 5.58995,2.61733 6.55414,4.47506 0.77514,1.49346 0.38456,2.97766 -1.17899,4.48023 l -0.73202,0.70349 3.80652,0.12334 c 3.00583,0.0974 4.29758,0.24589 6.14103,0.706 4.18719,1.04508 8.5657,2.77433 8.46302,3.34237 -0.0871,0.48225 -4.40294,2.21854 -7.44137,2.99378 -3.12501,0.79733 -5.81896,1.15567 -8.68821,1.15567 h -2.07598 l 0.83053,0.9036 c 3.07454,3.34509 0.28301,7.01654 -6.88151,9.05061 -2.06496,0.58625 -4.86689,1.01118 -4.86689,0.73808 z m 6.49084,-5.29712 c 1.98515,-1.6419 1.93189,-4.90458 -0.10608,-6.50298 -0.43002,-0.33726 -0.78184,-0.66484 -0.78182,-0.72794 2e-5,-0.0631 1.28692,-0.12124 2.85977,-0.12917 2.99088,-0.0151 5.13912,-0.43919 7.69116,-1.51831 1.43531,-0.60693 1.348,-0.84061 -0.60392,-1.61616 -2.21119,-0.87857 -4.6574,-1.32573 -7.25254,-1.32573 -2.40225,0 -2.55074,-0.086 -1.61391,-0.93524 2.72346,-2.46869 0.27488,-8.53203 -2.63615,-6.52784 -1.67049,1.1501 -0.0235,3.68215 1.81017,2.78298 0.88401,-0.43348 1.13686,-0.23558 1.14213,0.89387 0.007,1.61551 -1.39991,3.09034 -3.42826,3.59237 -0.57597,0.14256 -1.00337,0.38335 -1.00337,0.5653 0,0.17434 -0.15546,0.31696 -0.34545,0.31696 -0.50478,0 -2.22251,0.70798 -2.22251,0.91602 0,0.0978 0.23638,0.24213 0.52526,0.32076 l 0.52527,0.14295 -0.58248,0.44352 -0.58248,0.44351 1.04939,0.46786 c 0.57715,0.25733 1.22702,0.47013 1.44414,0.4729 0.49578,0.006 0.75798,0.38835 0.36541,0.5324 -0.33054,0.1213 -0.21073,0.17239 1.44596,0.61675 1.90123,0.50994 3.14162,2.35675 2.71225,4.03829 -0.1164,0.45565 -0.24612,0.55535 -0.55095,0.4233 -1.11402,-0.48256 -2.07245,-0.38206 -2.59605,0.27224 -1.38727,1.73355 0.97532,3.49689 2.73512,2.04139 z m -27.42749,-5.48425 c 1.09728,-0.80914 3.02481,-1.71086 4.78868,-2.24017 0.8565,-0.25702 1.64706,-0.55106 1.7568,-0.65343 0.16752,-0.15627 -8.67268,-0.46159 -8.92104,-0.30812 -0.0461,0.0285 0.15445,0.38073 0.44568,0.78274 0.30743,0.42439 0.57534,1.19984 0.6388,1.84896 0.12445,1.27305 0.25785,1.33194 1.29108,0.57002 z m 4.2449,-5.16052 2.56797,-0.14291 -1.74266,-0.53789 c -1.93339,-0.59674 -4.17863,-1.64964 -5.28291,-2.47738 -0.97658,-0.73202 -1.02837,-0.70442 -1.02936,0.54848 -4.7e-4,0.68413 -0.1744,1.36973 -0.46691,1.84129 -0.25631,0.41322 -0.46603,0.80045 -0.46603,0.86052 0,0.13796 3.07939,0.0938 6.4199,-0.0921 z"
       id="path2" /></g></svg>
