<?xml version="1.0" encoding="UTF-8" standalone="no"?>
<!-- Created with Inkscape (http://www.inkscape.org/) -->

<svg
   width="100"
   height="100"
   viewBox="0 0 100 100"
   version="1.1"
   id="svg4452"
   inkscape:version="1.3 (0e150ed6c4, 2023-07-21)"
   xml:space="preserve"
   sodipodi:docname="icon-left.svg"
   xmlns:inkscape="http://www.inkscape.org/namespaces/inkscape"
   xmlns:sodipodi="http://sodipodi.sourceforge.net/DTD/sodipodi-0.dtd"
   xmlns="http://www.w3.org/2000/svg"
   xmlns:svg="http://www.w3.org/2000/svg"><sodipodi:namedview
     id="namedview4454"
     pagecolor="#ffffff"
     bordercolor="#666666"
     borderopacity="1.0"
     inkscape:showpageshadow="2"
     inkscape:pageopacity="0.0"
     inkscape:pagecheckerboard="0"
     inkscape:deskcolor="#d1d1d1"
     inkscape:document-units="px"
     showgrid="true"
     inkscape:zoom="9.2550001"
     inkscape:cx="107.77958"
     inkscape:cy="67.15289"
     inkscape:window-width="3840"
     inkscape:window-height="2089"
     inkscape:window-x="-8"
     inkscape:window-y="-8"
     inkscape:window-maximized="1"
     inkscape:current-layer="layer1"><inkscape:grid
       type="xygrid"
       id="grid4456"
       originx="0"
       originy="0"
       spacingy="1"
       spacingx="1"
       units="px"
       visible="true"
       empspacing="10" /></sodipodi:namedview><defs
     id="defs4449" /><g
     inkscape:label="Layer 1"
     inkscape:groupmode="layer"
     id="layer1"><path
       style="fill:#000000"
       d="M 46.458984,98.885066 C 19.929078,96.178533 1.1214109,75.899238 1.1214109,50 1.1214109,6.8502663 53.164417,-15.195057 84.045252,14.87361 108.30257,38.492962 102.06208,78.743261 71.80607,93.814653 64.14105,97.63282 54.023313,99.656765 46.458984,98.885066 Z M 58.158193,73.959661 c 2.103578,-1.081646 3.01372,-3.388174 2.246865,-5.694119 -0.281386,-0.846135 -1.207529,-1.840528 -8.993211,-9.65594 l -8.67952,-8.712663 8.611259,-8.609603 c 4.809188,-4.808263 8.750024,-8.901993 8.925547,-9.271835 1.821174,-3.837374 -2.457087,-7.95012 -6.275917,-6.033117 -0.705956,0.354381 -21.523592,21.261937 -21.98231,22.07726 -0.417118,0.741386 -0.379727,3.195951 0.06113,4.012777 0.328886,0.609366 21.072218,21.372596 21.726721,21.747562 1.328911,0.761336 3.043598,0.816275 4.359438,0.139678 z"
       id="path1" /></g></svg>
