<?xml version="1.0" encoding="UTF-8" standalone="no"?>
<!-- Created with Inkscape (http://www.inkscape.org/) -->

<svg
   width="40"
   height="50"
   viewBox="0 0 40 50"
   version="1.1"
   id="svg4452"
   inkscape:version="1.3 (0e150ed6c4, 2023-07-21)"
   xml:space="preserve"
   sodipodi:docname="icon-left.svg"
   xmlns:inkscape="http://www.inkscape.org/namespaces/inkscape"
   xmlns:sodipodi="http://sodipodi.sourceforge.net/DTD/sodipodi-0.dtd"
   xmlns="http://www.w3.org/2000/svg"
   xmlns:svg="http://www.w3.org/2000/svg"><sodipodi:namedview
     id="namedview4454"
     pagecolor="#ffffff"
     bordercolor="#666666"
     borderopacity="1.0"
     inkscape:showpageshadow="2"
     inkscape:pageopacity="0.0"
     inkscape:pagecheckerboard="0"
     inkscape:deskcolor="#d1d1d1"
     inkscape:document-units="px"
     showgrid="true"
     inkscape:zoom="6.5442733"
     inkscape:cx="85.647401"
     inkscape:cy="38.277741"
     inkscape:window-width="3840"
     inkscape:window-height="2089"
     inkscape:window-x="-8"
     inkscape:window-y="-8"
     inkscape:window-maximized="1"
     inkscape:current-layer="layer1"><inkscape:grid
       type="xygrid"
       id="grid4456"
       originx="0"
       originy="0"
       spacingy="1"
       spacingx="1"
       units="px"
       visible="true"
       empspacing="10" /></sodipodi:namedview><defs
     id="defs4449" /><g
     inkscape:label="Layer 1"
     inkscape:groupmode="layer"
     id="layer1"><path
       d="m 39.670661,3.62053 0.0848,-0.22449 C 40.124708,2.41915 40.067966,1.58222 39.58636,0.9091 39.179626,0.33972 38.506537,-10e-6 37.786262,-10e-6 c -0.585114,0 -1.156171,0.21027 -1.742935,0.64189 l -34.6075091,21.6067 -0.16224,0.11314 C 0.46730692,22.98415 0.00323492,23.88861 1.4916794e-5,24.84299 -0.00308508,25.79737 0.45534092,26.70462 1.2573569,27.33221 l 0.07803,0.0612 L 36.0398,49.34728 c 0.588847,0.43891 1.163113,0.65273 1.752994,0.65273 0.717425,0 1.388515,-0.33838 1.795505,-0.90463 0.481349,-0.67066 0.541045,-1.50539 0.176821,-2.48203 L 39.682268,46.39064 25.260092,25.46772 c -0.07475,-0.35132 -0.07382,-0.87932 0.0021,-1.2309 z M 31.944736,42.12718 4.6441859,24.85695 4.8297639,24.74094 H 21.227824 c -0.01271,0.78836 0.09772,1.58333 0.337678,2.22725 l 0.08315,0.22263 z"
       id="path1"
       style="stroke-width:0.0856813" /></g></svg>
