<?xml version="1.0" encoding="UTF-8" standalone="no"?>
<!-- Created with Inkscape (http://www.inkscape.org/) -->

<svg
   width="50"
   height="50"
   viewBox="0 0 50 50"
   version="1.1"
   id="svg4452"
   inkscape:version="1.3 (0e150ed6c4, 2023-07-21)"
   xml:space="preserve"
   sodipodi:docname="icon-up.svg"
   xmlns:inkscape="http://www.inkscape.org/namespaces/inkscape"
   xmlns:sodipodi="http://sodipodi.sourceforge.net/DTD/sodipodi-0.dtd"
   xmlns="http://www.w3.org/2000/svg"
   xmlns:svg="http://www.w3.org/2000/svg"><sodipodi:namedview
     id="namedview4454"
     pagecolor="#ffffff"
     bordercolor="#666666"
     borderopacity="1.0"
     inkscape:showpageshadow="2"
     inkscape:pageopacity="0.0"
     inkscape:pagecheckerboard="0"
     inkscape:deskcolor="#d1d1d1"
     inkscape:document-units="px"
     showgrid="true"
     inkscape:zoom="9.2550001"
     inkscape:cx="34.52188"
     inkscape:cy="72.015126"
     inkscape:window-width="3840"
     inkscape:window-height="2089"
     inkscape:window-x="-8"
     inkscape:window-y="-8"
     inkscape:window-maximized="1"
     inkscape:current-layer="layer1"><inkscape:grid
       type="xygrid"
       id="grid4456"
       originx="0"
       originy="0"
       spacingy="1"
       spacingx="1"
       units="px"
       visible="true"
       empspacing="10" /></sodipodi:namedview><defs
     id="defs4449" /><g
     inkscape:label="Layer 1"
     inkscape:groupmode="layer"
     id="layer1"><path
       style="fill:#000000;stroke-width:0.176113"
       d="m 5.3634022,40.329599 c -0.29059,-0.130396 -1.57138,-1.296243 -2.84621,-2.590775 C -0.01633784,35.166144 -0.31459784,34.626909 0.22867216,33.601371 0.68656216,32.737013 23.969363,9.6205851 24.515695,9.4878991 c 0.266371,-0.06469 0.702251,-0.06469 0.968622,0 0.546332,0.132686 23.829133,23.2491139 24.28702,24.1134719 0.543254,1.025504 0.244994,1.564764 -2.288519,4.137695 -1.274827,1.294663 -2.583643,2.468106 -2.90848,2.607654 -1.221422,0.524713 -1.069899,0.651423 -10.637436,-8.895515 l -8.938579,-8.919333 -8.848839,8.840077 c -4.866861,4.86204 -9.0719418,8.922975 -9.3446118,9.024298 -0.62641,0.232763 -0.79121,0.225143 -1.44147,-0.06665 z"
       id="path1" /></g></svg>
