<?xml version="1.0" encoding="UTF-8" standalone="no"?>
<!-- Created with Inkscape (http://www.inkscape.org/) -->

<svg
   width="100"
   height="100"
   viewBox="0 0 26.458333 26.458333"
   version="1.1"
   id="svg4452"
   inkscape:version="1.3 (0e150ed6c4, 2023-07-21)"
   xml:space="preserve"
   sodipodi:docname="info.svg"
   xmlns:inkscape="http://www.inkscape.org/namespaces/inkscape"
   xmlns:sodipodi="http://sodipodi.sourceforge.net/DTD/sodipodi-0.dtd"
   xmlns="http://www.w3.org/2000/svg"
   xmlns:svg="http://www.w3.org/2000/svg"><sodipodi:namedview
     id="namedview4454"
     pagecolor="#ffffff"
     bordercolor="#666666"
     borderopacity="1.0"
     inkscape:showpageshadow="2"
     inkscape:pageopacity="0.0"
     inkscape:pagecheckerboard="0"
     inkscape:deskcolor="#d1d1d1"
     inkscape:document-units="mm"
     showgrid="true"
     inkscape:zoom="2.31375"
     inkscape:cx="21.609941"
     inkscape:cy="43.003782"
     inkscape:window-width="3840"
     inkscape:window-height="2089"
     inkscape:window-x="-8"
     inkscape:window-y="-8"
     inkscape:window-maximized="1"
     inkscape:current-layer="layer1"><inkscape:grid
       type="xygrid"
       id="grid4456"
       originx="0"
       originy="0"
       spacingy="0.26458333"
       spacingx="0.26458333"
       units="px"
       visible="true" /></sodipodi:namedview><defs
     id="defs4449" /><g
     inkscape:label="Layer 1"
     inkscape:groupmode="layer"
     id="layer1"><path
       style="fill:#000000;stroke-width:0.330494"
       d="M 10.931078,26.240103 C 9.6906748,26.022852 8.3702428,25.577579 7.1993998,24.981715 c -1.1507,-0.585614 -0.654943,-0.621998 -4.083681,0.299703 -1.590678,0.4276 -2.90500897,0.764652 -2.92073697,0.749004 -0.01573,-0.01565 0.336184,-1.38589 0.782026,-3.044983 L 1.7876288,19.968907 1.3809998,19.117178 C -4.6880382,6.4049186 10.563949,-5.8079954 21.527054,2.9853776 32.106709,11.471191 24.309612,28.583289 10.931078,26.240103 Z m 6.586749,-5.715479 c 0.02576,-0.531909 0.02576,-0.531909 -0.718727,-0.584181 -0.59634,-0.04187 -1.133653,-0.185383 -1.299581,-0.347108 -0.01104,-0.01076 -0.04063,-2.217543 -0.06575,-4.90396 l -0.04567,-4.8843964 -3.050598,-0.02294 -3.0505972,-0.02294 0.02613,0.5462694 c 0.02613,0.546267 0.02613,0.546267 0.7349542,0.592253 1.518287,0.0985 1.482819,-0.01097 1.482819,4.576746 0,4.617914 0.08908,4.354595 -1.511108,4.466949 -0.7243692,0.05086 -0.7243692,0.05086 -0.7243692,0.558283 0,0.59314 -0.327692,0.556934 5.0407812,0.556934 h 3.155967 z M 14.03487,8.3876326 c 2.078745,-1.048894 1.289119,-4.084006 -1.057583,-4.065066 -1.862943,0.01503 -2.794402,2.427913 -1.432597,3.711038 0.662914,0.624614 1.670129,0.767809 2.49018,0.354028 z"
       id="path1" /></g></svg>
