<?xml version="1.0" encoding="UTF-8" standalone="no"?>
<!-- Created with Inkscape (http://www.inkscape.org/) -->

<svg
   width="1280"
   height="100"
   viewBox="0 0 1280 100"
   version="1.1"
   id="svg4452"
   inkscape:version="1.3 (0e150ed6c4, 2023-07-21)"
   xml:space="preserve"
   sodipodi:docname="ornament-header.svg"
   xmlns:inkscape="http://www.inkscape.org/namespaces/inkscape"
   xmlns:sodipodi="http://sodipodi.sourceforge.net/DTD/sodipodi-0.dtd"
   xmlns="http://www.w3.org/2000/svg"
   xmlns:svg="http://www.w3.org/2000/svg"><sodipodi:namedview
     id="namedview4454"
     pagecolor="#ffffff"
     bordercolor="#666666"
     borderopacity="1.0"
     inkscape:showpageshadow="2"
     inkscape:pageopacity="0.0"
     inkscape:pagecheckerboard="0"
     inkscape:deskcolor="#d1d1d1"
     inkscape:document-units="px"
     showgrid="true"
     inkscape:zoom="1.6360683"
     inkscape:cx="577.90985"
     inkscape:cy="90.155159"
     inkscape:window-width="3840"
     inkscape:window-height="2089"
     inkscape:window-x="-8"
     inkscape:window-y="-8"
     inkscape:window-maximized="1"
     inkscape:current-layer="layer1"><inkscape:grid
       type="xygrid"
       id="grid4456"
       originx="0"
       originy="0"
       spacingy="1"
       spacingx="1"
       units="px"
       visible="true"
       empspacing="10" /></sodipodi:namedview><defs
     id="defs4449" /><g
     inkscape:label="Layer 1"
     inkscape:groupmode="layer"
     id="layer1"><path
       style="fill:#000000;stroke-width:1.03363"
       d="m 191.45672,99.584332 c -13.15236,-0.59853 -29.48875,-1.86512 -40.63625,-3.15061 -10.67263,-1.23072 -17.69858,-1.34722 -81.25166,-1.34722 H 0 l 0.48695,-1.57749 0.48695,-1.57749 68.57382,-0.18774 c 67.85869,-0.18578 68.75657,-0.16974 86.09823,1.53771 40.19768,3.95783 98.92709,4.31465 134.86184,0.8194 61.11317,-5.94429 96.35487,-15.61088 154.35392,-42.33837 33.12147,-15.26324 32.09527,-15.79981 -1.73157,-0.90538 -52.33128,23.04221 -93.93334,34.01489 -149.0066,39.30102 -59.41498,5.70285 -106.09298,3.44925 -188.76505,-9.11351 -47.12797,-7.16152 -69.09551,-7.67708 -74.88039,-1.75738 -1.055,1.07959 -1.19579,0.84397 -0.57882,-0.96876 2.90502,-8.5355 29.92296,-13.69096 57.89873,-11.04801 11.83629,1.1182 37.68627,6.40214 57.14598,11.68109 4.41294,1.19713 8.33636,2.03265 8.71872,1.85674 0.38235,-0.17592 -3.98661,-1.6181 -9.70879,-3.20486 -5.72218,-1.58676 -15.54701,-4.60267 -21.83294,-6.70203 -45.6477,-15.24533 -68.99552,-18.84597 -96.38431,-14.8642 -8.99378,1.30752 -9.58143,0.3595 -2.81848,-4.54687 9.4103,-6.82696 33.61106,-9.02458 52.72498,-4.78785 4.19062,0.92888 8.30505,1.82132 9.14317,1.98321 0.83813,0.16188 -2.35572,-1.55726 -7.09745,-3.8203 -8.33423,-3.97762 -16.52242,-8.99059 -16.52242,-10.11535 0,-0.78363 10.25202,0.62466 18.28635,2.51194 10.54321,2.47662 15.62351,5.43981 28.16097,16.42551 21.21797,18.59181 34.83477,23.97559 76.98555,30.43836 52.56756,8.05993 149.37023,2.64583 185.1493,-10.35526 1.67625,-0.6091 -3.5422,0.29134 -11.59657,2.00097 -74.11763,15.73234 -158.22363,14.36932 -213.66768,-3.46272 -32.29519,-10.38685 -45.73387,-31.13817 -25.72602,-39.72479 9.52658,-4.08845 24.46551,-5.74582 34.4647,-3.82361 6.5778,1.26448 8.63761,2.6395 2.83324,1.89132 -13.39237,-1.72627 -26.31602,5.16916 -26.31602,14.04096 0,3.56228 2.44177,4.04237 3.60067,0.70795 1.74082,-5.00867 13.77747,-9.52939 20.78101,-7.8049 7.65652,1.88526 8.99048,9.1144 1.68184,9.1144 -13.37071,0 -17.9324,8.54887 -8.43412,15.80599 28.7629,21.97619 114.7196,27.28533 200.67341,12.39467 14.17385,-2.45548 11.81042,-2.77046 -3.67654,-0.48999 -70.95343,10.448 -179.45371,-3.46438 -179.56254,-23.0243 -0.0253,-4.54619 2.71462,-6.03766 5.82569,-3.17119 1.7783,1.63848 5.04621,2.90239 10.89071,4.21214 4.59254,1.02918 9.87666,2.75209 11.74251,3.82868 3.71743,2.14496 3.64945,2.15169 6.23381,-0.61691 0.98986,-1.06042 2.42915,-1.92804 3.19842,-1.92804 2.86474,0 11.1109,5.08744 10.36713,6.39599 -2.10381,3.70139 12.02846,8.48421 33.25349,11.25404 14.92439,1.9476 70.43885,2.37794 86.86016,0.67332 25.00256,-2.5954 49.36815,-7.03855 70.47865,-12.85205 16.19183,-4.45898 15.83255,-4.59448 -2.2858,-0.86209 -72.41603,14.91773 -168.99438,9.9249 -187.97224,-9.71763 -16.55669,-17.13657 28.39509,-34.2863 56.92006,-21.71578 6.02641,2.65574 5.18328,3.10979 -2.76922,1.49131 -25.02455,-5.09293 -43.6652,8.20603 -30.41112,21.69645 15.38499,15.65932 75.62685,20.00691 142.3133,10.27059 28.1627,-4.11179 40.23895,-7.23519 85.54049,-22.12419 40.23204,-13.22283 87.36333,-17.06258 123.90133,-10.09413 2.25852,0.43074 2.0528,0.0497 -1.1429,-2.11688 -6.87545,-4.66137 -3.84004,-9.45755 5.98552,-9.45755 6.37016,0 8.46648,0.94963 16.02016,7.25716 16.98596,14.18372 43.36286,15.63123 58.89674,3.23213 11.73941,-9.37039 13.12509,-10.12472 19.01451,-10.35114 10.47928,-0.40286 13.92745,4.21025 6.76959,9.05666 l -3.70602,2.50925 10.18244,-1.41341 c 15.76692,-2.18859 55.16052,-2.14253 68.57543,0.0802 16.13097,2.67274 27.80946,5.47744 44.50852,10.68915 32.68332,10.20035 41.14642,12.6774 44.25442,12.95278 5.3425,0.47337 9.3063,1.15367 8.6042,1.4767 -0.366,0.16838 -2.6463,-0.02 -5.0674,-0.41865 -7.7086,-1.26927 0.2339,1.22389 11.5986,3.64081 61.3374,13.04451 131.7793,13.50024 159.7338,1.0334 28.7679,-12.82953 11.3208,-35.23116 -21.4873,-27.58934 -7.602,1.77068 -7.9353,0.92193 -0.837,-2.13146 21.8018,-9.37829 59.841,-0.6075 59.9092,13.81337 0.1181,24.97789 -97.9951,34.81513 -185.9736,18.64652 -17.8166,-3.27433 -12.2492,-1.14249 10.7509,4.11667 34.8482,7.9683 52.841,9.8353 94.4795,9.80354 49.6552,-0.0379 76.9229,-4.63673 76.9494,-12.97795 0.01,-1.73904 7.9008,-6.26777 10.9271,-6.26777 0.7791,0 2.285,0.95021 3.3463,2.11157 l 1.9298,2.11157 3.7112,-1.82665 c 2.0411,-1.00466 7.4827,-2.67778 12.0924,-3.71805 5.81,-1.31114 9.1668,-2.60639 10.9419,-4.22198 l 2.5606,-2.33059 1.7125,2.92599 c 12.1333,20.73131 -106.6207,37.2507 -179.6489,24.99023 -9.1574,-1.53739 -9.5822,-0.9363 -0.5706,0.80741 81.2777,15.72699 175.9825,9.24435 200.8948,-13.75144 7.0468,-6.50467 1.7381,-13.7945 -10.3818,-14.256 -7.7878,-0.29654 -4.4012,-9.6686 3.4938,-9.6686 8.9338,0 16.4093,3.79464 19.1913,9.74159 l 1.8384,3.92997 0.1277,-5.44121 c 0.2314,-9.85961 -13.3735,-17.59464 -25.636,-14.57525 -2.2634,0.55732 -3.1897,0.56424 -3.1897,0.0238 0,-1.45013 11.0088,-2.97002 18.5399,-2.55965 24.3988,1.3295 36.2934,10.3719 29.4784,22.40981 -19.3335,34.1504 -144.3352,47.34446 -241.5488,25.49574 -16.3061,-3.66479 -17.6738,-3.86524 -9.1432,-1.34007 47.3916,14.0285 134.6699,17.65571 188.5083,7.83425 36.7854,-6.71056 45.5185,-10.68392 69.7207,-31.72119 10.5711,-9.18872 15.3844,-11.81893 25.6943,-14.04055 20.925,-4.50901 22.0794,-2.67038 3.8778,6.17648 -14.2175,6.91039 -14.4272,7.16062 -3.7765,4.50653 21.8275,-5.43924 44.437,-3.49484 55.8783,4.80549 6.5395,4.74432 6.0901,5.02324 -5.796,3.59697 -28.5296,-3.42341 -49.9048,-0.027 -93.3366,14.83061 -7.9622,2.7238 -19.6197,6.38467 -25.9056,8.13527 -15.5875,4.34105 -8.5657,3.24121 10.8563,-1.70044 8.6962,-2.21262 21.3438,-5.20468 28.1058,-6.64901 34.9271,-7.46029 72.4237,-3.71043 79.0563,7.90605 l 1.0007,1.75277 -3.2315,-1.91401 c -8.4289,-4.99229 -28.9554,-4.1261 -76.9292,3.24628 -96.0559,14.76145 -163.5244,15.30682 -230.8651,1.86619 -5.4478,-1.08734 -11.6195,-2.31943 -13.7148,-2.73799 -11.5022,-2.29767 -42.4343,-11.5807 -57.1448,-17.14973 -10.6774,-4.04214 -18.6056,-7.36234 -40.0227,-16.76071 -8.6025,-3.77498 -16.23337,-6.8636 -16.95751,-6.8636 -1.5912,0 45.63481,21.49979 58.50401,26.63417 38.0733,15.18987 78.7451,24.1025 130.2903,28.55117 26.9433,2.32539 87.8051,1.77155 116.7623,-1.06252 l 23.0448,-2.25542 69.1283,0.18248 c 64.4432,0.17012 69.1631,0.26564 69.6416,1.40942 0.4826,1.1534 -3.4778,1.22694 -66.0711,1.22694 h -66.5844 l -19.2446,2.07955 c -100.4344,10.852868 -215.5312,-3.9213 -277.0971,-35.56904 -39.36052,-20.2331 -64.63844,-28.94067 -94.06691,-32.40352 -13.74965,-1.61791 -36.07874,-1.82743 -45.80873,-0.42982 -5.67997,0.81586 -4.95289,0.87472 10.66704,0.86354 42.25596,-0.0302 63.43156,6.40144 109.1771,33.16046 7.7487,4.53265 10.5121,9.25052 7.5311,12.85784 -1.8771,2.27147 -4.7043,2.52908 -4.7043,0.42866 0,-1.50465 -7.0859,-5.03037 -17.0037,-8.46045 -4.49453,-1.55444 -6.44405,-3.1425 -11.18893,-9.11437 -9.1568,-11.52469 -17.74815,-16.45529 -37.33346,-21.42577 -39.21595,-9.95248 -84.23563,-7.89968 -104.4376,4.76212 -18.70471,11.72338 -15.74807,33.32935 5.24524,38.33001 l 6.7161,1.59979 h -6.0362 c -14.47134,0 -22.63462,-7.59882 -22.63462,-21.06953 v -9.5013 l 5.63671,-5.22192 c 4.1726,-3.86555 9.99588,-7.37858 22.41902,-13.52477 18.08176,-8.94573 20.39213,-10.68417 16.11253,-12.12392 -4.23074,-1.42332 -7.80187,-0.0273 -13.68881,5.35097 -18.32378,16.74072 -52.16421,16.70233 -72.86306,-0.0827 -6.43363,-5.21711 -11.89044,-6.96017 -14.86268,-4.74755 -1.86277,1.38671 1.12161,3.34938 17.98529,11.828 11.28398,5.67331 17.18449,9.31916 21.33407,13.18208 l 5.73603,5.33977 v 9.5013 c 0,13.45473 -8.50246,21.1149 -23.35583,21.04209 l -5.59756,-0.0274 4.57159,-0.9871 c 25.84814,-5.58108 27.47157,-30.20465 2.74154,-41.58256 -17.67682,-8.13283 -41.06604,-10.31454 -72.23286,-6.73777 -37.87699,4.34685 -54.43057,11.35348 -67.75749,28.67969 -2.63261,3.42262 -6.52492,5.54111 -18.0341,9.81548 -3.31213,1.23009 -6.52865,3.26763 -7.7475,4.90774 l -2.08409,2.80443 -2.56314,-2.78837 c -3.84659,-4.18461 -1.16711,-8.77232 8.09563,-13.86104 50.16827,-27.5612 66.27498,-32.2639 110.80733,-32.35257 15.46716,-0.0308 16.28496,-0.098 10.66704,-0.87689 -3.3464,-0.46395 -12.46352,-0.86778 -20.26024,-0.89742 -41.3583,-0.1572 -74.46281,8.83724 -115.20794,31.30178 -38.37288,21.15662 -92.76352,34.34562 -164.21462,39.81982 -13.61925,1.04344 -68.00756,1.933228 -81.27177,1.32961 z m 363.41746,-17.01717 c -10.77803,-2.64217 -11.5301,-6.05216 -3.0683,-13.91216 9.36703,-8.70086 11.69531,-12.14114 4.68476,-6.92226 -1.77511,1.32145 -7.14551,3.57408 -11.93422,5.00586 -4.78872,1.43177 -9.59101,3.10966 -10.67176,3.72863 -2.81268,1.6109 -5.23762,-0.22963 -4.2815,-3.24968 0.46634,-1.47301 0.0818,-2.28411 -1.08765,-2.29419 -0.99496,-0.009 -3.52336,-0.62562 -5.61868,-1.3712 l -3.80965,-1.35562 3.42415,-1.58693 c 2.99475,-1.38792 4.72725,-1.56245 13.81558,-1.39173 8.30231,0.15594 10.99833,-0.0598 13.41016,-1.07323 1.66029,-0.69763 2.30066,-1.06002 1.42304,-0.80532 -0.87762,0.2547 -4.33863,0.6368 -7.69113,0.84913 -3.3525,0.21231 -4.72398,0.20274 -3.04773,-0.0212 10.21212,-1.36476 22.09601,-7.90826 22.09601,-12.16649 0,-2.01459 -7.20316,-7.00268 -10.11235,-7.00268 -2.57088,0 -2.67385,0.84788 -0.23903,1.9681 2.5025,1.15136 -1.7929,3.17289 -5.39178,2.53751 -6.63208,-1.1709 -3.97611,-6.37191 3.6104,-7.07 2.45518,-0.22592 4.04637,-0.72165 3.53595,-1.10162 -1.33374,-0.99288 5.12443,-0.004 12.40647,1.89949 3.3525,0.87638 12.08766,2.77246 19.41146,4.21352 28.87628,5.6818 39.10163,15.18556 27.22548,25.30419 l -3.22402,2.74691 1.15148,-2.80443 c 4.91119,-11.96122 -2.72849,-18.05323 -30.63231,-24.42669 -7.66265,-1.75022 -16.33218,-3.86245 -19.26561,-4.69384 l -5.33352,-1.51163 4.57159,1.64167 c 11.12578,3.99529 14.75701,6.85133 20.72428,16.3001 3.37169,5.3388 5.81278,6.60043 14.32456,7.40329 4.36475,0.4117 4.59226,0.61243 5.02859,4.43665 0.25136,2.20298 0.16525,4.00543 -0.19135,4.00543 -3.67675,0 -17.8135,-3.72838 -17.91038,-4.72363 -0.0661,-0.67968 -1.17192,0.1327 -2.45723,1.80527 -3.87892,5.04766 -5.84132,2.65661 -5.55267,-6.76551 l 0.25106,-8.19433 -2.23281,4.90774 c -2.10677,4.63069 -1.97098,9.7164 0.39308,14.72322 l 0.99312,2.10332 -3.99451,-1.68938 -3.9945,-1.6894 -2.44183,2.6888 c -2.41199,2.65594 -2.40635,7.12323 0.0122,9.62908 1.57293,1.62973 -1.46754,1.60239 -8.30885,-0.0747 z m 163.11478,-0.49676 c 1.96909,-2.38282 1.88491,-6.58043 -0.1868,-9.31466 -1.97123,-2.60165 -2.83013,-2.69963 -6.47876,-0.73908 -3.73692,2.008 -4.71757,1.25066 -2.45849,-1.89865 2.06186,-2.87438 1.12031,-13.51706 -1.45716,-16.47087 -1.01266,-1.16052 -1.19232,0.29091 -0.58206,4.70233 1.28098,9.25986 -1.8864,14.95317 -4.85704,8.73044 -0.96747,-2.02661 -1.01154,-2.03438 -3.9269,-0.69307 -1.62165,0.7461 -4.18885,1.35654 -5.70491,1.35654 -1.51606,0 -4.08758,0.46321 -5.71449,1.02936 -4.78636,1.66561 -5.42047,1.28923 -4.93888,-2.93148 0.44599,-3.90888 0.57789,-4.01674 5.47197,-4.47451 7.34539,-0.68705 10.31002,-2.28593 13.26349,-7.15323 7.92762,-13.0647 25.46432,-21.49435 34.82055,-16.73776 4.98849,2.53608 1.80303,7.06621 -4.2209,6.00267 -1.92164,-0.33926 -2.31847,-0.95244 -1.59593,-2.46596 1.32465,-2.7748 -1.2766,-2.55522 -6.40971,0.54109 -7.7684,4.68591 -3.79046,11.03838 9.14633,14.60601 5.69904,1.57165 5.96599,1.75799 2.55446,1.78302 -3.50499,0.0257 -3.57937,0.0895 -0.93004,0.79738 1.73705,0.46414 6.33488,0.60326 11.58803,0.35065 7.96479,-0.38302 9.02018,-0.26584 12.35903,1.37213 l 3.65058,1.7909 -3.59751,1.34265 c -1.97864,0.73846 -4.53302,1.34265 -5.67638,1.34265 -1.49235,0 -1.82358,0.58733 -1.17397,2.08169 1.64274,3.77899 -0.28483,4.62247 -5.73852,2.51115 -2.61312,-1.01163 -6.7227,-2.30841 -9.13242,-2.88172 -2.40971,-0.57332 -7.12767,-2.64093 -10.48435,-4.59469 -7.8327,-4.55903 -7.68951,-4.15428 1.51624,4.28579 10.67742,9.78933 10.03518,14.15264 -2.436,16.55004 -7.34674,1.41231 -8.407,1.28182 -6.66946,-0.82081 z m -49.51758,-15.87542 c -9.70931,-11.14316 -1.37736,-18.87866 26.31002,-24.4266 17.14992,-3.43646 28.02005,-6.20235 27.0917,-6.89344 -0.35769,-0.26629 0.8422,-0.5696 2.66644,-0.67403 25.40037,-1.45399 42.55062,6.69098 34.52875,16.39835 l -1.55111,1.87702 -3.16453,-1.85094 c -1.74048,-1.01802 -5.85575,-2.48261 -9.14502,-3.25466 -5.11925,-1.20159 -5.75686,-1.59599 -4.42754,-2.73877 8.18037,-7.03248 -6.74666,-12.52662 -20.28659,-7.46682 -3.49356,1.30552 -12.18069,3.71179 -19.30474,5.34726 -27.14713,6.23219 -35.0422,11.95917 -30.46645,22.1 2.20094,4.87777 1.22073,5.56696 -2.25093,1.58263 z m -321.58067,-9.94434 c -18.09729,-2.61971 -32.06032,-9.1848 -35.77336,-16.8198 -1.97909,-4.06951 -1.20757,-4.68476 3.39728,-2.70908 3.0016,1.2878 21.7367,6.48292 23.3793,6.48292 0.33854,0 0.61553,-1.22704 0.61553,-2.72676 0,-5.78802 4.29269,-6.30427 12.57187,-1.51192 4.06591,2.35353 7.23835,4.92268 7.23835,5.86185 0,7.23385 24.11879,11.67389 46.54548,8.56857 9.68881,-1.34156 10.68103,-0.84605 1.17394,0.58626 -21.38199,3.22134 -46.03272,4.16654 -59.14839,2.26796 z m 547.06669,-0.0322 c -15.8676,-1.68561 -18.1212,-2.42778 -6.0955,-2.00736 19.0774,0.66693 34.2869,-3.32337 34.2869,-8.9954 0,-1.48309 1.6011,-3.0144 4.9526,-4.73674 2.7239,-1.39982 6.0445,-3.31698 7.3791,-4.26033 l 2.4265,-1.71521 2.8228,1.98209 c 1.5525,1.09015 2.7571,3.04794 2.6768,4.35064 -0.08,1.30271 0.2606,2.36856 0.7575,2.36856 1.7942,0 21.1867,-5.55731 23.1067,-6.62166 5.6512,-3.13283 5.4902,2.38401 -0.2208,7.56774 -11.8504,10.75625 -40.0315,15.47352 -72.0926,12.06767 z m -372.43535,-6.10732 c -5.1641,-6.81555 2.64047,-13.29965 18.58692,-15.44217 3.52425,-0.47351 6.83719,-1.14723 7.36207,-1.49717 1.01021,-0.6735 13.07262,0.0134 14.12467,0.80426 0.34005,0.25566 -3.14462,0.46483 -7.7437,0.46483 -13.4522,0 -19.20953,4.60561 -13.58465,10.86713 0.66504,0.74034 -1.07695,1.54441 -5.88444,2.71616 -3.75605,0.91548 -7.23745,2.25634 -7.73645,2.9797 -1.33573,1.93627 -3.23111,1.60607 -5.12442,-0.89274 z m -120.15326,-3.39325 c -4.8702,-1.36618 -6.51059,-3.15741 -3.33723,-3.64409 1.04224,-0.15984 0.77525,-0.98896 -0.75254,-2.33702 -3.08238,-2.71974 -3.04222,-8.80312 0.0799,-12.10256 2.4241,-2.56179 2.48565,-2.57641 3.57862,-0.84933 4.614,7.29088 22.02495,11.91426 44.86729,11.91426 12.44701,0 1.70925,2.63739 -25.44703,6.25025 -4.85185,0.64549 -8.33769,1.39623 -7.74631,1.66832 2.42195,1.1143 -6.65143,0.3881 -11.24265,-0.89983 z m 465.84151,0.73086 c 1.7033,-0.49577 1.1821,-0.7461 -2.2858,-1.09788 -2.4707,-0.25063 -9.2923,-1.24941 -15.1591,-2.21952 -24.3157,-4.02067 -25.8175,-4.4322 -16.1744,-4.4322 22.582,0 45.8897,-6.01842 45.8897,-11.84948 0,-1.65502 2.8915,-0.65123 4.3445,1.50817 3.1929,4.74554 3.3767,6.6487 0.9584,9.92588 -1.7946,2.43186 -2.0043,3.5658 -0.7847,4.24192 2.6708,1.48059 -6.431,4.5894 -13.3974,4.57604 -3.9852,-0.008 -4.962,-0.19572 -3.3912,-0.65293 z m 154.7515,-2.64263 c -13.4003,-1.49147 -14.4439,-10.15622 -1.4607,-12.12761 17.2959,-2.62624 27.2876,8.41581 10.5302,11.63718 -2.8391,0.54577 -5.3554,0.95571 -5.5918,0.91098 -0.2365,-0.0447 -1.8014,-0.23398 -3.4777,-0.42055 z m -776.36919,-1.58359 c -7.40586,-3.40732 -4.58055,-9.03493 5.28823,-10.53343 14.18323,-2.1536 24.93512,5.11359 14.60043,9.86842 -5.52717,2.54297 -15.11043,2.8634 -19.88866,0.66501 z m 382.97853,-17.96204 c -2.96504,-2.08198 -0.62283,-4.99168 6.49448,-8.06797 l 3.58223,-1.54834 3.04553,3.0884 c 5.4714,5.54841 3.61462,8.34669 -5.53843,8.34669 -3.6933,0 -5.66808,-0.47361 -7.58381,-1.81878 z m 19.43669,-8.03801 c -3.68673,-1.53351 -6.42968,-2.90236 -6.09545,-3.04187 11.02746,-4.6032401 25.66178,-4.03492 25.72807,0.99913 0.0699,5.30735 -9.41234,6.29395 -19.63262,2.04274 z m -34.86403,-0.349 c -6.84432,-2.20562 -2.54656,-8.7240701 5.75199,-8.7240701 3.05508,0 15.24301,4.5404801 15.24301,5.6786201 0,0.60158 -13.99184,4.13686 -16.37276,4.13686 -0.6795,0 -2.75952,-0.49114 -4.62224,-1.09141 z m 21.17895,-8.0222701 c -6.73185,-5.51076 -0.5147,-10.60163 10.10212,-8.27206003 6.09142,1.33659003 6.43409,4.63199003 0.8587,8.25772003 -5.3744,3.4950301 -6.70675,3.4967701 -10.96082,0.0144 z"
       id="path4" /></g></svg>
