<?xml version="1.0" encoding="UTF-8" standalone="no"?>
<!-- Created with Inkscape (http://www.inkscape.org/) -->

<svg
   width="1280"
   height="55"
   viewBox="0 0 1280 55"
   version="1.1"
   id="svg4452"
   inkscape:version="1.3 (0e150ed6c4, 2023-07-21)"
   xml:space="preserve"
   sodipodi:docname="ornament-header.svg"
   xmlns:inkscape="http://www.inkscape.org/namespaces/inkscape"
   xmlns:sodipodi="http://sodipodi.sourceforge.net/DTD/sodipodi-0.dtd"
   xmlns="http://www.w3.org/2000/svg"
   xmlns:svg="http://www.w3.org/2000/svg"><sodipodi:namedview
     id="namedview4454"
     pagecolor="#ffffff"
     bordercolor="#666666"
     borderopacity="1.0"
     inkscape:showpageshadow="2"
     inkscape:pageopacity="0.0"
     inkscape:pagecheckerboard="0"
     inkscape:deskcolor="#d1d1d1"
     inkscape:document-units="px"
     showgrid="true"
     inkscape:zoom="1.6360683"
     inkscape:cx="577.90985"
     inkscape:cy="41.257446"
     inkscape:window-width="3840"
     inkscape:window-height="2089"
     inkscape:window-x="-8"
     inkscape:window-y="-8"
     inkscape:window-maximized="1"
     inkscape:current-layer="layer1"><inkscape:grid
       type="xygrid"
       id="grid4456"
       originx="0"
       originy="0"
       spacingy="1"
       spacingx="1"
       units="px"
       visible="true"
       empspacing="10" /></sodipodi:namedview><defs
     id="defs4449" /><g
     inkscape:label="Layer 1"
     inkscape:groupmode="layer"
     id="layer1"><path
       style="fill:#000000;stroke-width:2.16895"
       d="m 76.802398,51.632742 c -6.40419,-3.287829 -6.72284,-8.530923 -0.83703,-13.772012 l 4.39001,-3.909141 -29.0705,0.21311 c -22.74557,0.166743 -31.69381,-0.392423 -41.12779,-2.570036 -24.59018,-5.676071 -2.1179705,-11.612827 41.4937,-10.961911 31.50041,0.470153 31.64783,0.446686 24.55724,-3.908855 -12.29703,-7.55368 1.44856,-19.308689 18.93322,-16.19140202 6.387972,1.13889702 6.457592,4.56575902 0.15242,7.49527902 -9.08172,4.219455 4.19143,15.666235 19.117312,16.486787 8.35291,0.459206 8.74777,0.217793 7.25418,-4.435236 -3.93699,-12.265216 16.72256,-15.157991 51.88474,-7.264956 16.51872,3.708046 14.63638,3.693743 16.64422,0.126463 2.63639,-4.683981 20.60564,-4.114636 23.2259,0.735901 4.42649,8.194075 -10.22736,10.686041 -34.79427,5.916954 -6.28296,-1.21969 -16.01055,-2.217618 -21.61687,-2.217618 -5.60633,0 -12.81192,-1.101039 -16.01245,-2.446755 -9.29719,-3.909153 -7.7903,2.549383 1.54555,6.624284 l 7.36453,3.214532 H 368.4673 c 124.34809,0 218.56079,-0.562955 218.56079,-1.305984 0,-2.00194 11.18176,-2.909673 17.04933,-1.384058 6.10116,1.58636 6.91208,7.228495 1.40656,9.786421 -5.23011,2.429963 -13.68599,2.226754 -18.45589,-0.443524 -3.44962,-1.93118 -31.73435,-2.217619 -218.98139,-2.217619 H 153.02664 l -8.92476,3.972629 c -4.90863,2.184945 -8.92475,4.846088 -8.92475,5.913649 0,2.135906 3.9648,2.565533 7.68006,0.832212 1.30716,-0.609845 10.49532,-1.862653 20.41816,-2.784018 9.92281,-0.921362 22.73167,-2.570499 28.4641,-3.664745 12.27408,-2.342963 20.80649,-0.645616 22.43764,4.463506 2.18235,6.835553 -14.18175,10.181545 -22.57288,4.615513 -4.3182,-2.864363 -4.65861,-2.867626 -20.06823,-0.192358 -38.46878,6.678575 -50.93398,5.090123 -49.86194,-6.353964 0.52586,-5.613944 -0.33895,-6.802424 -4.95003,-6.802424 -16.51223,0 -31.482302,12.525026 -21.249182,17.77858 3.00939,1.544986 4.626922,3.831771 3.59453,5.081747 -2.57488,3.117524 -15.85576,2.860489 -22.26696,-0.430951 z m 1102.483802,0.70827 c -2.7043,-1.513959 -2.1363,-2.760343 2.3546,-5.166108 7.297,-3.908987 5.6275,-9.137549 -4.5461,-14.237818 -12.8053,-6.419579 -20.4798,-5.068156 -20.4798,3.606326 0,11.17606 -14.9052,12.620631 -53.3051,5.166191 -10.6211,-2.061833 -11.7464,-2.011482 -17.3352,0.775664 -7.9165,3.947938 -14.0271,3.761524 -20.2009,-0.616257 -10.7535,-7.625149 6.4525,-12.476026 26.8606,-7.57279 4.8898,1.174816 16.3062,2.593076 25.3698,3.151691 9.0636,0.558615 17.2476,1.593259 18.1867,2.299207 0.939,0.705952 3.0548,1.283547 4.7016,1.283547 5.842,0 2.8688,-3.937905 -5.9305,-7.85467 l -8.9247,-3.972629 H 923.7453 c -175.93307,0 -202.80805,0.288958 -206.25319,2.217619 -4.76989,2.670278 -13.22578,2.873487 -18.45589,0.443524 -5.50552,-2.557926 -4.6946,-8.200061 1.40656,-9.786421 5.86757,-1.525615 17.04933,-0.617882 17.04933,1.384058 0,0.742294 89.17393,1.305984 206.60223,1.305984 h 206.60226 l 6.595,-3.895408 c 8.6989,-5.138028 9.2703,-9.514996 0.7759,-5.943408 -3.2005,1.345716 -10.1801,2.446755 -15.5101,2.446755 -5.3301,0 -15.7788,0.997928 -23.2194,2.217618 -26.3392,4.317631 -41.1648,1.635359 -34.7291,-6.283252 3.3601,-4.134306 17.1683,-4.51422 22.4075,-0.616512 3.4983,2.602634 4.3497,2.574759 21.5058,-0.704115 33.4386,-6.390811 48.0927,-4.404335 48.0927,6.519349 0,6.115875 0.4436,6.43077 8.4359,5.987569 16.7909,-0.931116 27.665,-12.534313 16.3601,-17.457052 -7.1702,-3.122234 -7.1889,-3.212727 -1.0976,-5.297465 17.5257,-5.998112 33.7292,4.620782 22.4217,14.694044 -2.6144,2.329045 -4.7546,4.324901 -4.7559,4.435236 0,0.110334 13.2439,-0.0011 29.4339,-0.247605 29.2568,-0.445478 49.1607,2.068252 52.4272,6.621215 2.5433,3.544971 -25.6984,7.137134 -53.9766,6.865477 l -27.8177,-0.267233 4.7409,4.259449 c 11.2793,10.133976 -8.9446,22.386967 -23.5006,14.23822 z M 637.94088,33.638603 C 626.39386,28.27374 635.9893,17.376069 652.2601,17.376069 c 7.66683,0 20.68332,6.115126 20.68332,9.716983 0,4.650378 -10.56109,9.502376 -20.68332,9.502376 -4.37532,0 -10.81897,-1.330571 -14.31922,-2.956825 z"
       id="path2" /></g></svg>
