<?xml version="1.0" encoding="UTF-8" standalone="no"?>
<!-- Created with Inkscape (http://www.inkscape.org/) -->

<svg
   width="600"
   height="40"
   viewBox="0 0 600 40"
   version="1.1"
   id="svg4452"
   inkscape:version="1.3 (0e150ed6c4, 2023-07-21)"
   xml:space="preserve"
   sodipodi:docname="ornament.svg"
   xmlns:inkscape="http://www.inkscape.org/namespaces/inkscape"
   xmlns:sodipodi="http://sodipodi.sourceforge.net/DTD/sodipodi-0.dtd"
   xmlns="http://www.w3.org/2000/svg"
   xmlns:svg="http://www.w3.org/2000/svg"><sodipodi:namedview
     id="namedview4454"
     pagecolor="#ffffff"
     bordercolor="#666666"
     borderopacity="1.0"
     inkscape:showpageshadow="2"
     inkscape:pageopacity="0.0"
     inkscape:pagecheckerboard="0"
     inkscape:deskcolor="#d1d1d1"
     inkscape:document-units="px"
     showgrid="true"
     inkscape:zoom="2.31375"
     inkscape:cx="230.14587"
     inkscape:cy="18.800648"
     inkscape:window-width="3840"
     inkscape:window-height="2089"
     inkscape:window-x="-8"
     inkscape:window-y="-8"
     inkscape:window-maximized="1"
     inkscape:current-layer="layer1"><inkscape:grid
       type="xygrid"
       id="grid4456"
       originx="0"
       originy="0"
       spacingy="1"
       spacingx="1"
       units="px"
       visible="true"
       empspacing="10" /></sodipodi:namedview><defs
     id="defs4449" /><g
     inkscape:label="Layer 1"
     inkscape:groupmode="layer"
     id="layer1"><path
       style="fill:#000000;stroke-width:0.500958"
       d="m 293.53839,29.611873 c -7.18901,-11.890171 -6.88696,-11.096051 -4.28105,-11.255461 3.79639,-0.23224 9.02221,-3.88302 10.23783,-7.15219 0.29979,-0.80623 0.52812,-0.65906 1.68842,1.08832 2.4166,3.63934 5.88424,5.83907 9.55906,6.06387 1.09869,0.0672 1.99812,0.28986 1.99872,0.49477 10e-4,0.43863 -12.47583,21.148819 -12.74137,21.148819 -0.0994,0 -3.00716,-4.674658 -6.46161,-10.388128 z m 11.85702,-1.734587 4.6975,-7.725874 -2.3353,-0.5893 c -1.52632,-0.38517 -3.27446,-1.39638 -5.04645,-2.91912 L 300,14.313182 l -2.71116,2.32896 c -1.76763,1.51844 -3.52229,2.53395 -5.04187,2.91795 l -2.33072,0.58898 4.70591,7.727043 c 2.58825,4.249873 4.82363,7.901394 4.96751,8.114489 0.42342,0.62709 0.8756,-0.0048 5.80574,-8.113318 z m -8.59801,-0.665061 c -3.04966,-4.984433 -3.2329,-5.725243 -1.41609,-5.725243 1.10822,0 4.34543,-2.52294 4.35114,-3.39109 0.002,-0.29861 0.44856,0.033 0.99242,0.73707 1.2277,1.58919 2.78511,2.61999 3.98766,2.63929 0.50429,0.008 1.04813,0.19596 1.20852,0.41748 0.26098,0.36043 -5.45171,10.242234 -5.92105,10.242234 -0.10589,0 -1.54707,-2.213883 -3.2026,-4.919741 z m -128.01757,9.69985 c -25.59628,-1.833547 -41.10334,-4.256977 -85.401565,-13.346493 -36.27648,-7.44354 -43.43561,-8.77962 -56.89928,-10.61895 -6.25654,-0.85473 -6.18575,-0.91439 -2.40991,2.03115 6.44288,5.0261 8.34228,5.80436 15.6595,6.4163 14.96376,1.25142 28.4772,5.586506 36.12495,11.588823 l 2.83046,2.221485 -2.12627,-0.181253 c -15.2031,-1.295978 -30.05112,-4.811725 -40.88963,-9.681935 l -5.68719,-2.5555 -5.69968,0.28683 c -10.40612,0.52367 -12.04508,0.7511 -11.26513,1.56317 1.88017,1.95759 6.91006,4.135732 10.28051,4.451864 7.8927,0.740295 16.67184,3.493622 20.76984,6.513859 l 1.62669,1.198882 -2.44004,-0.284414 c -5.32353,-0.620514 -14.13138,-2.673578 -19.85857,-4.628931 -7.38161,-2.520198 -12.45856,-2.061515 -20.7000196,1.870164 -1.34346,0.640919 -2.54684999,1.076376 -2.67418999,0.967685 -0.51955,-0.44347 9.07153999,-4.055399 12.66094959,-4.768011 l 3.85991,-0.766316 -3.06023,-1.922903 c -2.75414,-1.730572 -5.3286996,-4.206689 -4.8228596,-4.638459 0.38356,-0.32739 7.3095796,-1.12075 12.4356896,-1.42449 l 5.22341,-0.3095 -5.49452,-4.67945 c -3.02199,-2.5737 -5.93533,-5.35634 -6.47409,-6.18364 l -0.97956,-1.5041802 h 1.38981 c 3.19797,0 19.56515,2.2814602 32.01384,4.4624902 9.96862,1.74652 14.17046,2.59245 44.19686,8.89795 41.165205,8.644619 62.393845,11.699725 86.631155,12.467464 40.81866,1.292967 81.42487,-5.541146 102.70192,-17.284954 7.93574,-4.38011 15.35346,-11.9826002 13.09125,-13.4173402 -4.25067,-2.69587004 -12.19142,-3.32427004 -16.86844,-1.33492 -3.64929,1.5522 -7.7025,5.3235 -6.24767,5.81311 3.42513,1.15269 11.27334,0.13017 13.96835,-1.81987 1.0534,-0.76222 1.06445,-0.7587 0.29096,0.0929 -1.94218,2.13822 -7.97317,3.37626 -12.76436,2.62027 -3.97807,-0.6277 -3.91858,-0.53447 -1.88411,-2.95256 5.32221,-6.32573004 13.9595,-7.81869 22.92685,-3.96288 3.44648,1.48193 3.4428,1.47604 2.33864,3.73167 -8.68655,17.7453002 -57.32191,31.5702572 -110.10727,31.2987862 -7.75392,-0.03988 -15.07405,-0.142421 -16.26696,-0.227873 z M 66.569065,30.812005 c 0,-1.572373 -19.98055,-7.079453 -25.33989,-6.984233 -3.41681,0.0607 10.08476,4.35205 19.62682,6.238194 2.99308,0.591631 5.50295,1.09024 5.57751,1.10802 0.0746,0.01778 0.13556,-0.14511 0.13556,-0.361981 z m 323.441465,5.503692 c -45.59037,-4.289153 -78.02847,-15.896505 -85.1646,-30.4745352 -1.10415,-2.25563 -1.10784,-2.24974 2.33864,-3.73167 8.96735,-3.85581 17.60464,-2.36285004 22.92685,3.96288 2.03447,2.41809 2.09397,2.32486 -1.8841,2.95256 -4.79119,0.75599 -10.82219,-0.48205 -12.76436,-2.62027 -0.77349,-0.85157 -0.76245,-0.85509 0.29096,-0.0929 2.69501,1.95004 10.54322,2.97256 13.96834,1.81987 1.45484,-0.48961 -2.59838,-4.26091 -6.24767,-5.81311 -4.67701,-1.98935004 -12.61777,-1.36095004 -16.86843,1.33492 -2.26222,1.43474 5.15551,9.0372302 13.09124,13.4173402 21.23314,11.719569 61.59189,18.536183 102.41049,17.297185 24.21534,-0.735026 45.64898,-3.81231 86.9226,-12.479695 30.02639,-6.3055 34.22824,-7.15143 44.19686,-8.89795 12.44869,-2.18103 28.81586,-4.4624902 32.01384,-4.4624902 h 1.3898 l -0.97956,1.5041802 c -0.53876,0.8273 -3.45209,3.60994 -6.47408,6.18364 l -5.49453,4.67945 5.22341,0.3095 c 5.12611,0.30374 12.05213,1.0971 12.43569,1.42449 0.50585,0.43177 -2.06872,2.907887 -4.82286,4.638459 l -3.06023,1.922903 3.85991,0.766316 c 3.58941,0.712612 13.18051,4.324541 12.66096,4.768011 -0.12735,0.108691 -1.33073,-0.326766 -2.6742,-0.967685 -8.24145,-3.931679 -13.3184,-4.390362 -20.70002,-1.870164 -5.72718,1.955353 -14.53503,4.008417 -19.85856,4.628931 l -2.44005,0.284414 1.6267,-1.198882 c 4.09799,-3.020237 12.87714,-5.773564 20.76983,-6.513859 3.37045,-0.316132 8.40034,-2.494274 10.28052,-4.451864 0.77995,-0.81207 -0.85901,-1.0395 -11.26513,-1.56317 l -5.69969,-0.28683 -5.68719,2.5555 c -10.83851,4.87021 -25.68652,8.385957 -40.88962,9.681935 l -2.12628,0.181253 2.83047,-2.221485 c 7.64775,-6.002317 21.16119,-10.337403 36.12494,-11.588823 6.12887,-0.51256 6.683,-0.64481 9.54061,-2.27689 3.11931,-1.78156 9.35225,-6.41954 9.01455,-6.7078 -1.02237,-0.87263 -29.04645,4.26219 -72.13587,13.217401 -49.95458,10.381986 -85.41432,13.630401 -116.68018,10.688904 z m 158.87402,-8.587506 c 11.55923,-3.260929 13.70221,-4.869149 4.273,-3.206719 -7.48653,1.319928 -19.72662,5.190729 -19.72662,6.238338 0,0.527872 9.31062,-1.298643 15.45362,-3.031619 z m -276.35177,4.221572 c -4.63765,-1.414011 -7.18341,-3.070978 -5.89848,-3.839173 4.6872,-2.802268 13.93467,-3.259178 18.61179,-0.919605 3.52359,1.762558 3.68523,2.355532 0.27244,0.999383 -3.43346,-1.364359 -8.96213,-1.548299 -13.32178,-0.443219 -3.93326,0.996999 -3.88297,1.326966 0.48664,3.192861 3.81416,1.628711 3.73001,2.192943 -0.15061,1.009753 z m 54.72112,-0.957572 c 4.43376,-1.921892 4.48871,-2.246496 0.54934,-3.245042 -4.35965,-1.10508 -9.88832,-0.92114 -13.32177,0.443219 -3.43268,1.36405 -3.24361,0.760968 0.32238,-1.028285 3.83452,-1.923991 11.92228,-1.893341 16.59596,0.0629 3.00013,1.25575 3.13797,1.383103 2.16893,2.003833 -1.99557,1.278282 -5.99503,2.830423 -8.11378,3.148859 -1.90508,0.286323 -1.70836,0.134816 1.79894,-1.385486 z m -149.25613,-0.0656 C 155.51363,29.030754 138.54775,25.960069 112.6588,19.100772 97.382775,15.053382 62.805975,4.1803818 63.453475,3.6277118 c 0.0978,-0.0835 5.65786,1.38359 12.35576,3.26008 C 145.59402,26.438801 182.18448,31.244218 225.82325,26.589109 c 17.43754,-1.860127 44.15653,-7.836297 45.02948,-10.071637 0.23554,-0.60316 -3.76263,-1.13645 -6.28564,-0.8384 -1.60555,0.18966 -1.72413,0.15693 -0.62553,-0.17268 2.17182,-0.65159 5.83869,-0.55628 7.9801,0.20742 l 1.98071,0.70641 -1.26977,0.75912 c -7.38274,4.4138 -31.59346,10.347952 -51.76008,12.686607 -7.8064,0.905283 -36.34452,1.611263 -42.87475,1.060642 z m 212.82611,-0.0089 C 365.70519,29.006537 336.61617,22.708762 327.3674,17.179352 l -1.26977,-0.75913 1.98071,-0.70641 c 2.1414,-0.7637 5.80827,-0.85901 7.98009,-0.20742 1.09861,0.32961 0.98003,0.36234 -0.62552,0.17268 -2.52302,-0.29805 -6.52119,0.23524 -6.28564,0.8384 0.87295,2.23534 27.59194,8.21151 45.02948,10.071633 43.63877,4.65511 80.22923,-0.150308 150.01402,-19.7013132 6.6979,-1.87649 12.25798,-3.34353 12.35575,-3.26008 0.0978,0.0835 -4.16231,1.61831 -9.46684,3.41082 -36.0379,12.1779202 -67.34595,19.7664082 -95.04615,23.0374102 -5.9858,0.706838 -35.15249,1.302583 -41.20965,0.841728 z"
       id="path2" /></g></svg>
