<?xml version="1.0" encoding="UTF-8" standalone="no"?>
<!-- Created with Inkscape (http://www.inkscape.org/) -->

<svg
   width="50"
   height="50"
   viewBox="0 0 50 50"
   version="1.1"
   id="svg4452"
   inkscape:version="1.3 (0e150ed6c4, 2023-07-21)"
   xml:space="preserve"
   sodipodi:docname="quotation-start.svg"
   xmlns:inkscape="http://www.inkscape.org/namespaces/inkscape"
   xmlns:sodipodi="http://sodipodi.sourceforge.net/DTD/sodipodi-0.dtd"
   xmlns="http://www.w3.org/2000/svg"
   xmlns:svg="http://www.w3.org/2000/svg"><sodipodi:namedview
     id="namedview4454"
     pagecolor="#ffffff"
     bordercolor="#666666"
     borderopacity="1.0"
     inkscape:showpageshadow="2"
     inkscape:pageopacity="0.0"
     inkscape:pagecheckerboard="0"
     inkscape:deskcolor="#d1d1d1"
     inkscape:document-units="px"
     showgrid="true"
     inkscape:zoom="6.5442733"
     inkscape:cx="85.647401"
     inkscape:cy="38.277741"
     inkscape:window-width="3840"
     inkscape:window-height="2089"
     inkscape:window-x="-8"
     inkscape:window-y="-8"
     inkscape:window-maximized="1"
     inkscape:current-layer="layer1"><inkscape:grid
       type="xygrid"
       id="grid4456"
       originx="0"
       originy="0"
       spacingy="1"
       spacingx="1"
       units="px"
       visible="true"
       empspacing="10" /></sodipodi:namedview><defs
     id="defs4449" /><g
     inkscape:label="Layer 1"
     inkscape:groupmode="layer"
     id="layer1"><path
       style="fill:#000000;stroke-width:0.271397"
       d="m 45.520225,45.570963 2.130648,-2.161587 -1.832639,-1.994907 C 41.386701,36.590557 39.116373,31.82196 38.886435,26.854914 l -0.07445,-1.608312 4.223238,-0.136279 c 6.967188,-0.224821 6.962573,-0.217458 6.962573,-11.109893 0,-11.7983587 0.422905,-11.3339817 -10.439687,-11.4634297 -12.399747,-0.147763 -12.097287,-0.474978 -11.92465,12.9006307 0.178785,13.851849 2.035959,18.121839 12.890421,29.637491 2.992892,3.175201 2.41215,3.117566 4.996349,0.495841 z m -27.562235,-0.0024 2.132954,-2.163928 -2.158798,-2.300171 c -3.866784,-4.119891 -5.7141,-7.646206 -6.484102,-12.377304 -0.625275,-3.841846 -0.868616,-3.616784 3.910506,-3.616784 6.832576,0 7.075371,-0.378555 7.073194,-11.02817 C 22.429344,2.2238923 22.604026,2.3921343 10.442968,2.5370533 -0.48488661,2.6672783 0.00328139,2.1087563 0.00328139,14.481287 c 0,14.381123 1.89596001,19.014191 12.21237561,29.842844 3.847049,4.038059 3.139875,3.884792 5.742333,1.244543 z"
       id="path1" /></g></svg>
