<?xml version="1.0" encoding="UTF-8" standalone="no"?>
<!-- Created with Inkscape (http://www.inkscape.org/) -->

<svg
   width="50"
   height="50"
   viewBox="0 0 50 50"
   version="1.1"
   id="svg4452"
   inkscape:version="1.3 (0e150ed6c4, 2023-07-21)"
   xml:space="preserve"
   sodipodi:docname="quotation-end.svg"
   xmlns:inkscape="http://www.inkscape.org/namespaces/inkscape"
   xmlns:sodipodi="http://sodipodi.sourceforge.net/DTD/sodipodi-0.dtd"
   xmlns="http://www.w3.org/2000/svg"
   xmlns:svg="http://www.w3.org/2000/svg"><sodipodi:namedview
     id="namedview4454"
     pagecolor="#ffffff"
     bordercolor="#666666"
     borderopacity="1.0"
     inkscape:showpageshadow="2"
     inkscape:pageopacity="0.0"
     inkscape:pagecheckerboard="0"
     inkscape:deskcolor="#d1d1d1"
     inkscape:document-units="px"
     showgrid="true"
     inkscape:zoom="6.5442733"
     inkscape:cx="85.647401"
     inkscape:cy="38.277741"
     inkscape:window-width="3840"
     inkscape:window-height="2089"
     inkscape:window-x="-8"
     inkscape:window-y="-8"
     inkscape:window-maximized="1"
     inkscape:current-layer="layer1"><inkscape:grid
       type="xygrid"
       id="grid4456"
       originx="0"
       originy="0"
       spacingy="1"
       spacingx="1"
       units="px"
       visible="true"
       empspacing="10" /></sodipodi:namedview><defs
     id="defs4449" /><g
     inkscape:label="Layer 1"
     inkscape:groupmode="layer"
     id="layer1"><path
       style="fill:#000000;stroke-width:0.271397"
       d="m 4.4797756,45.570963 -2.130648,-2.161587 1.832639,-1.994907 C 8.6132996,36.590557 10.883627,31.82196 11.113565,26.854914 l 0.07445,-1.608312 -4.2232374,-0.136279 C -0.00241039,24.885502 0.00220461,24.892865 0.00220461,14.00043 0.00220461,2.2020713 -0.42070039,2.6664483 10.441891,2.5370003 22.841638,2.3892373 22.539178,2.0620223 22.366541,15.437631 22.187756,29.28948 20.330582,33.55947 9.4761206,45.075122 c -2.992892,3.175201 -2.41215,3.117566 -4.996349,0.495841 z m 27.5622344,-0.0024 -2.132954,-2.163928 2.158798,-2.300171 c 3.866784,-4.119891 5.7141,-7.646206 6.484102,-12.377304 0.625275,-3.841846 0.868616,-3.616784 -3.910506,-3.616784 -6.832576,0 -7.075371,-0.378555 -7.073194,-11.02817 0.0024,-11.8583137 -0.172282,-11.6900717 11.988776,-11.5451527 10.927855,0.130225 10.439687,-0.428297 10.439687,11.9442337 0,14.381123 -1.89596,19.014191 -12.212376,29.842844 -3.847049,4.038059 -3.139875,3.884792 -5.742333,1.244543 z"
       id="path1" /></g></svg>
