<?xml version="1.0" encoding="UTF-8" standalone="no"?>
<!-- Created with Inkscape (http://www.inkscape.org/) -->

<svg
   width="100"
   height="48"
   viewBox="0 0 99.999999 47.999999"
   version="1.1"
   id="svg4452"
   inkscape:version="1.3 (0e150ed6c4, 2023-07-21)"
   xml:space="preserve"
   sodipodi:docname="timeline.svg"
   xmlns:inkscape="http://www.inkscape.org/namespaces/inkscape"
   xmlns:sodipodi="http://sodipodi.sourceforge.net/DTD/sodipodi-0.dtd"
   xmlns="http://www.w3.org/2000/svg"
   xmlns:svg="http://www.w3.org/2000/svg"><sodipodi:namedview
     id="namedview4454"
     pagecolor="#ffffff"
     bordercolor="#666666"
     borderopacity="1.0"
     inkscape:showpageshadow="2"
     inkscape:pageopacity="0.0"
     inkscape:pagecheckerboard="0"
     inkscape:deskcolor="#d1d1d1"
     inkscape:document-units="px"
     showgrid="true"
     inkscape:zoom="9.2550002"
     inkscape:cx="14.424635"
     inkscape:cy="52.45813"
     inkscape:window-width="3840"
     inkscape:window-height="2089"
     inkscape:window-x="-8"
     inkscape:window-y="-8"
     inkscape:window-maximized="1"
     inkscape:current-layer="layer1"><inkscape:grid
       type="xygrid"
       id="grid4456"
       originx="0.00028180258"
       originy="-26.820635"
       spacingy="1"
       spacingx="1"
       units="px"
       visible="true"
       empspacing="10" /></sodipodi:namedview><defs
     id="defs4449" /><g
     inkscape:label="Layer 1"
     inkscape:groupmode="layer"
     id="layer1"
     transform="translate(2.8180259e-4,-26.820635)"><path
       id="path1"
       style="fill:#000000;stroke-width:0.207594"
       d="m 41.200998,27.730817 a 4.5,4.5 0 0 0 -4.5,4.5 4.5,4.5 0 0 0 3.761719,4.431641 v 6.677734 6.824219 h -4.146485 c -4.717025,0 -4.225067,0.218577 -4.439453,-1.972656 -0.433109,-4.42681 -4.208866,-9.444197 -8.748047,-11.625 C 6.994278,28.815123 -7.8402938,49.449708 4.6697477,62.242536 c 9.7652763,9.98602 26.9110853,3.455626 27.4843753,-10.46875 0.0035,-0.08564 5.144124,-0.15625 11.423828,-0.15625 H 54.99592 l -0.0098,6.798828 -0.0078,6.576172 a 4.5,4.5 0 0 0 -3.691407,4.417969 4.5,4.5 0 0 0 4.5,4.5 4.5,4.5 0 0 0 4.5,-4.5 4.5,4.5 0 0 0 -3.695312,-4.425781 C 56.463435,64.467426 56.449045,63.003502 56.449045,58.467145 V 51.617536 H 70.253732 84.05842 v 6.828125 6.535156 a 4.5,4.5 0 0 0 -3.742188,4.429688 4.5,4.5 0 0 0 4.5,4.5 4.5,4.5 0 0 0 4.5,-4.5 4.5,4.5 0 0 0 -3.660156,-4.419922 C 85.52696,64.477147 85.511545,63.014967 85.511545,58.467145 v -6.849609 h 4.152343 4.150391 v 1.453125 c 0,1.798668 -0.176098,1.809994 3.335938,-0.230469 3.538563,-2.055873 3.422913,-1.847504 1.599609,-2.902343 -0.830445,-0.480436 -2.185885,-1.280691 -3.011719,-1.777344 -1.938973,-1.166089 -1.923828,-1.169797 -1.923828,0.550781 v 1.453125 H 82.398263 70.980295 V 43.42027 36.67613 l 0.03516,-0.01563 a 4.5,4.5 0 0 0 3.755859,-4.429688 4.5,4.5 0 0 0 -4.5,-4.5 4.5,4.5 0 0 0 -4.5,4.5 4.5,4.5 0 0 0 3.75586,4.429688 v 6.751953 6.751953 H 55.722482 41.915842 v -6.748047 -6.748047 l 0.002,-0.002 a 4.5,4.5 0 0 0 3.783203,-4.435547 4.5,4.5 0 0 0 -4.5,-4.5 z m -25.185547,8.91211 c 3.793138,-0.06668 7.676789,1.379192 10.712891,4.701172 6.904303,7.554407 3.710393,19.911283 -6.019532,23.287109 C 11.588768,67.795431 1.7714383,60.720062 1.8201383,51.017927 1.8633425,42.407849 8.7740054,36.770216 16.015451,36.642927 Z m 0.783203,1.433593 v 1.03711 c 0,2.003327 -1.297658,2.055213 -1.414062,0.05664 l -0.0625,-1.089843 -0.960938,0.144531 C 8.7256243,39.070058 4.0210985,43.787736 3.3806852,49.236677 l -0.1328125,1.134765 h 1.0546875 c 1.1678738,0 1.6281592,0.397578 1.2597656,1.085938 -0.1483259,0.27715 -0.4517333,0.367187 -1.2265625,0.367187 -1.2102298,0 -1.2368589,0.08432 -0.6933594,2.271485 1.1367039,4.574351 4.6296159,8.129559 9.2109381,9.376953 2.110807,0.574729 2.49064,0.532789 2.49414,-0.28125 0.0044,-1.05278 0.21161,-1.584478 0.677735,-1.732422 0.594759,-0.18877 0.980468,0.405194 0.980468,1.511719 0,1.040404 0.0774,1.063972 1.980469,0.582031 5.362095,-1.357924 9.834459,-6.41995 9.849609,-11.146484 l 0.002,-0.767579 -1.089844,-0.0625 c -1.861404,-0.107169 -1.669199,-1.401403 0.208984,-1.408203 1.033824,-0.0037 1.126098,-0.408202 0.574219,-2.49414 -1.292074,-4.883651 -5.683632,-8.748646 -10.748047,-9.458985 z m 5.824219,6.933594 c 0.291741,0.0044 0.402344,0.27759 0.402344,0.789063 0,0.09209 -1.261356,1.305827 -2.802735,2.697265 -1.541383,1.391439 -2.802734,2.663482 -2.802734,2.826172 0,0.162696 -0.185708,0.482583 -0.414063,0.710938 -0.744639,0.744639 -1.704571,0.495046 -2.271484,-0.589844 -0.178101,-0.34083 -1.007262,-1.382564 -1.841797,-2.314453 -1.528333,-1.706628 -1.702306,-2.154482 -1.009766,-2.576172 0.325209,-0.198026 0.596834,0.0079 1.970704,1.488281 2.170487,2.338728 2.111483,2.346552 5.496093,-0.6875 1.800998,-1.614461 2.787202,-2.351137 3.273438,-2.34375 z" /></g></svg>
