<?xml version="1.0" encoding="UTF-8" standalone="no"?>
<!-- Created with Inkscape (http://www.inkscape.org/) -->

<svg
   width="100"
   height="100"
   viewBox="0 0 26.458333 26.458333"
   version="1.1"
   id="svg4452"
   inkscape:version="1.3 (0e150ed6c4, 2023-07-21)"
   sodipodi:docname="white-logo.svg"
   xmlns:inkscape="http://www.inkscape.org/namespaces/inkscape"
   xmlns:sodipodi="http://sodipodi.sourceforge.net/DTD/sodipodi-0.dtd"
   xmlns="http://www.w3.org/2000/svg"
   xmlns:svg="http://www.w3.org/2000/svg">
  <sodipodi:namedview
     id="namedview4454"
     pagecolor="#ffffff"
     bordercolor="#666666"
     borderopacity="1.0"
     inkscape:showpageshadow="2"
     inkscape:pageopacity="0.0"
     inkscape:pagecheckerboard="0"
     inkscape:deskcolor="#d1d1d1"
     inkscape:document-units="px"
     showgrid="true"
     inkscape:zoom="4.6275"
     inkscape:cx="-42.679633"
     inkscape:cy="24.311183"
     inkscape:window-width="3840"
     inkscape:window-height="2089"
     inkscape:window-x="-8"
     inkscape:window-y="-8"
     inkscape:window-maximized="1"
     inkscape:current-layer="layer1">
    <inkscape:grid
       type="xygrid"
       id="grid4456"
       originx="0"
       originy="0"
       spacingy="0.26458333"
       spacingx="0.26458333"
       units="px"
       visible="true" />
  </sodipodi:namedview>
  <defs
     id="defs4449">
    <inkscape:path-effect
       effect="fillet_chamfer"
       id="path-effect2"
       is_visible="true"
       lpeversion="1"
       nodesatellites_param="F,0,0,1,0,0,0,1 @ F,0,0,1,0,0,0,1 @ F,0,0,1,0,0,0,1 @ F,0,0,1,0,0,0,1 @ F,0,0,1,0,0,0,1 @ F,0,0,1,0,0,0,1 @ F,0,0,1,0,0,0,1 @ F,0,0,1,0,0,0,1 @ F,0,0,1,0,0,0,1 @ F,0,0,1,0,0,0,1 @ F,0,0,1,0,0,0,1 @ F,0,0,1,0,0,0,1 @ F,0,0,1,0,0,0,1 @ F,0,0,1,0,0,0,1 @ F,0,0,1,0,0,0,1 @ F,0,0,1,0,0,0,1 @ F,0,0,1,0,0,0,1 @ F,0,0,1,0,0,0,1 @ F,0,0,1,0,0,0,1 @ F,0,0,1,0,0,0,1 @ F,0,0,1,0,0,0,1 @ F,0,0,1,0,0,0,1 @ F,0,0,1,0,0,0,1 @ F,0,0,1,0,0,0,1 @ F,0,0,1,0,0,0,1 @ F,0,0,1,0,0,0,1 @ F,0,0,1,0,0,0,1 @ F,0,0,1,0,0,0,1 @ F,0,0,1,0,0,0,1 @ F,0,0,1,0,0,0,1 @ F,0,0,1,0,0,0,1 @ F,0,0,1,0,0,0,1 @ F,0,0,1,0,0,0,1 @ F,0,0,1,0,0,0,1 @ F,0,0,1,0,0,0,1 @ F,0,0,1,0,0,0,1 @ F,0,0,1,0,0,0,1 @ F,0,0,1,0,0,0,1 @ F,0,0,1,0,0,0,1 @ F,0,0,1,0,0,0,1 @ F,0,0,1,0,0,0,1 @ F,0,0,1,0,0,0,1 @ F,0,0,1,0,0,0,1 @ F,0,0,1,0,0,0,1 @ F,0,0,1,0,0,0,1 @ F,0,0,1,0,0.81444782,0,1 @ F,0,0,1,0,1.866362,0,1 @ F,0,0,1,0,1.0885924,0,1 @ F,0,0,1,0,1.0516902,0,1 @ F,0,0,1,0,0,0,1 @ F,0,0,1,0,0,0,1 @ F,0,0,1,0,0,0,1 @ F,0,0,1,0,0,0,1"
       radius="0"
       unit="px"
       method="auto"
       mode="F"
       chamfer_steps="1"
       flexible="false"
       use_knot_distance="true"
       apply_no_radius="true"
       apply_with_radius="true"
       only_selected="false"
       hide_knots="false" />
    <inkscape:path-effect
       effect="fillet_chamfer"
       id="path-effect1"
       is_visible="true"
       lpeversion="1"
       nodesatellites_param="F,0,0,1,0,0,0,1 @ F,0,0,1,0,0,0,1 @ F,0,0,1,0,0,0,1 @ F,0,0,1,0,0,0,1 @ F,0,0,1,0,0,0,1 @ F,0,0,1,0,0,0,1 @ F,0,0,1,0,0,0,1 @ F,0,0,1,0,0,0,1 @ F,0,0,1,0,0,0,1 @ F,0,0,1,0,0,0,1 @ F,0,0,1,0,0,0,1 @ F,0,0,1,0,0,0,1 @ F,0,0,1,0,0,0,1 @ F,0,0,1,0,0,0,1 @ F,0,0,1,0,0,0,1 @ F,0,0,1,0,0,0,1 @ F,0,0,1,0,0,0,1 @ F,0,0,1,0,0,0,1 @ F,0,0,1,0,0,0,1 @ F,0,0,1,0,0,0,1 @ F,0,0,1,0,0,0,1 @ F,0,0,1,0,0,0,1 @ F,0,0,1,0,0,0,1 @ F,0,0,1,0,0,0,1 @ F,0,0,1,0,0,0,1 @ F,0,0,1,0,0,0,1 @ F,0,0,1,0,0,0,1 @ F,0,0,1,0,0,0,1 @ F,0,0,1,0,0,0,1 @ F,0,0,1,0,0,0,1 @ F,0,0,1,0,0,0,1 @ F,0,0,1,0,0,0,1 @ F,0,0,1,0,0,0,1 @ F,0,0,1,0,0,0,1 @ F,0,0,1,0,0,0,1 @ F,0,0,1,0,0,0,1 @ F,0,0,1,0,0,0,1 @ F,0,0,1,0,0,0,1 @ F,0,0,1,0,0,0,1 @ F,0,0,1,0,0,0,1 @ F,0,0,1,0,0,0,1 @ F,0,0,1,0,0,0,1 @ F,0,0,1,0,0,0,1 @ F,0,0,1,0,0,0,1 @ F,0,0,1,0,0,0,1 @ F,0,0,1,0,1.5852571,0,1 @ F,0,0,1,0,1.8572325,0,1 @ F,0,0,1,0,1.0885924,0,1 @ F,0,0,1,0,1.8700563,0,1 @ F,0,0,1,0,0,0,1 @ F,0,0,1,0,0,0,1 @ F,0,0,1,0,0,0,1 @ F,0,0,1,0,0,0,1"
       radius="0"
       unit="px"
       method="auto"
       mode="F"
       chamfer_steps="1"
       flexible="false"
       use_knot_distance="true"
       apply_no_radius="true"
       apply_with_radius="true"
       only_selected="false"
       hide_knots="false" />
    <rect
       x="0"
       y="0"
       width="100"
       height="100"
       id="rect1" />
  </defs>
  <g
     inkscape:label="Layer 1"
     inkscape:groupmode="layer"
     id="layer1">
    <path
       d="m 17.156572,14.198844 c 0.826823,0 1.529623,-0.150069 2.108399,-0.450208 0.606337,-0.323225 1.102431,-0.738801 1.48828,-1.246727 0.385851,-0.507926 0.67524,-1.062027 0.868165,-1.662303 0.192926,-0.623365 0.289389,-1.2351849 0.289389,-1.8354608 0,-1.0620276 -0.206706,-2.0547924 -0.620118,-2.9782943 C 20.904836,5.1023488 20.339841,4.3058283 19.5957,3.6362894 18.851559,2.9667503 17.955835,2.4472804 16.908526,2.0778796 15.861217,1.6853913 14.676104,1.4891471 13.353188,1.4891471 c -1.901693,0 -3.5966797,0.3232257 -5.084961,0.9696771 C 6.8075065,3.1052757 5.5672722,3.9595151 4.547524,5.0215424 3.5553365,6.0835697 2.7836351,7.3072099 2.2324198,8.692463 c -0.5236544,1.385253 -0.7854816,2.805138 -0.7854816,4.259654 0,1.593041 0.289388,3.082187 0.868164,4.46744 0.6063367,1.385253 1.4607204,2.59735 2.563151,3.63629 1.1299912,1.038939 2.4804686,1.847004 4.0514322,2.424193 1.5985236,0.600276 3.3761926,0.900414 5.3330076,0.900414 1.874131,0 3.500216,-0.380945 4.878254,-1.142834 1.405599,-0.761889 2.563151,-1.789285 3.472656,-3.082188 0.192926,-0.253963 0.399632,-0.380945 0.620117,-0.380945 0.165366,0 0.30317,0.04617 0.413412,0.138526 0.110243,0.115437 0.165365,0.242419 0.165365,0.380944 0,0.09235 -0.01378,0.15007 -0.04134,0.173157 -0.330729,0.831152 -0.826823,1.616129 -1.488281,2.35493 -0.633898,0.738801 -1.378039,1.373709 -2.232422,1.904723 -0.826823,0.531014 -1.750108,0.94659 -2.769857,1.246727 -0.992188,0.323226 -2.025717,0.484839 -3.100586,0.484839 -2.232422,0 -4.2305772,-0.404032 -5.9944655,-1.212096 C 6.4492182,24.46126 4.9609374,23.42232 3.7207031,22.129417 2.5080295,20.836515 1.5847439,19.358912 0.95084637,17.696607 0.31694879,16.057391 0,14.372 0,12.640433 0,10.862692 0.33072916,9.200389 0.99218747,7.6535231 1.6812052,6.1066572 2.6458313,4.7675793 3.8860658,3.6362894 5.1538608,2.5049993 6.6697028,1.6161286 8.4335917,0.96967727 10.225041,0.32322576 12.209415,0 14.386716,0 c 1.626085,0 3.169488,0.20778792 4.630208,0.62336377 1.46072,0.41557603 2.742295,1.01585233 3.844726,1.80082903 1.102431,0.7849768 1.970595,1.754654 2.604492,2.9090315 0.661459,1.13129 0.992189,2.412649 0.992189,3.8440769 0,0.8542398 -0.165365,1.7084798 -0.496094,2.5627188 -0.33073,0.854239 -0.813044,1.616128 -1.446941,2.285667 -0.606336,0.669539 -1.364257,1.223641 -2.273763,1.662304 -0.881944,0.415576 -1.874131,0.623364 -2.976562,0.623364 -1.240235,0 -2.356446,-0.242419 -3.348633,-0.727258 -0.992188,-0.484839 -1.79145,-1.165921 -2.397786,-2.043248 l 0.461085,8.664603 a 0.60885695,0.60885695 140.1732 0 1 -0.749021,0.624654 L 10.282275,22.12812 A 2.1948252,2.1948252 53.768563 0 1 8.6015561,19.834351 L 9.7109056,4.5253287 A 1.4046566,1.4046566 131.91989 0 1 10.860616,3.2448498 l 0.804657,-0.1463012 a 0.98274655,0.98274655 36.636066 0 1 1.152377,0.8569567 l 0.700902,6.2261037 c 0.05166,0.458854 0.0689,0.935046 0.206706,1.419885 0.137803,0.484839 0.344509,0.923502 0.620117,1.315991 0.303168,0.369401 0.675238,0.681082 1.116211,0.935045 0.468532,0.230876 1.033527,0.346314 1.694986,0.346314 z"
       id="text2"
       style="font-size:36.1379px;line-height:1.25;font-family:'Owah Tagu Siam NF';-inkscape-font-specification:'Owah Tagu Siam NF, Normal';stroke-width:0.394144;fill:#fffffa;fill-opacity:1"
       aria-label="P"
       inkscape:label="p"
       sodipodi:nodetypes="scscscscscccscccsccscsccccscccscccssscssccsscccccssccs"
       inkscape:path-effect="#path-effect2"
       inkscape:original-d="m 17.156572,14.198844 c 0.826823,0 1.529623,-0.150069 2.108399,-0.450208 0.606337,-0.323225 1.102431,-0.738801 1.48828,-1.246727 0.385851,-0.507926 0.67524,-1.062027 0.868165,-1.662303 0.192926,-0.623365 0.289389,-1.2351849 0.289389,-1.8354608 0,-1.0620276 -0.206706,-2.0547924 -0.620118,-2.9782943 C 20.904836,5.1023488 20.339841,4.3058283 19.5957,3.6362894 18.851559,2.9667503 17.955835,2.4472804 16.908526,2.0778796 15.861217,1.6853913 14.676104,1.4891471 13.353188,1.4891471 c -1.901693,0 -3.5966797,0.3232257 -5.084961,0.9696771 C 6.8075065,3.1052757 5.5672722,3.9595151 4.547524,5.0215424 3.5553365,6.0835697 2.7836351,7.3072099 2.2324198,8.692463 c -0.5236544,1.385253 -0.7854816,2.805138 -0.7854816,4.259654 0,1.593041 0.289388,3.082187 0.868164,4.46744 0.6063367,1.385253 1.4607204,2.59735 2.563151,3.63629 1.1299912,1.038939 2.4804686,1.847004 4.0514322,2.424193 1.5985236,0.600276 3.3761926,0.900414 5.3330076,0.900414 1.874131,0 3.500216,-0.380945 4.878254,-1.142834 1.405599,-0.761889 2.563151,-1.789285 3.472656,-3.082188 0.192926,-0.253963 0.399632,-0.380945 0.620117,-0.380945 0.165366,0 0.30317,0.04617 0.413412,0.138526 0.110243,0.115437 0.165365,0.242419 0.165365,0.380944 0,0.09235 -0.01378,0.15007 -0.04134,0.173157 -0.330729,0.831152 -0.826823,1.616129 -1.488281,2.35493 -0.633898,0.738801 -1.378039,1.373709 -2.232422,1.904723 -0.826823,0.531014 -1.750108,0.94659 -2.769857,1.246727 -0.992188,0.323226 -2.025717,0.484839 -3.100586,0.484839 -2.232422,0 -4.2305772,-0.404032 -5.9944655,-1.212096 C 6.4492182,24.46126 4.9609374,23.42232 3.7207031,22.129417 2.5080295,20.836515 1.5847439,19.358912 0.95084637,17.696607 0.31694879,16.057391 0,14.372 0,12.640433 0,10.862692 0.33072916,9.200389 0.99218747,7.6535231 1.6812052,6.1066572 2.6458313,4.7675793 3.8860658,3.6362894 5.1538608,2.5049993 6.6697028,1.6161286 8.4335917,0.96967727 10.225041,0.32322576 12.209415,0 14.386716,0 c 1.626085,0 3.169488,0.20778792 4.630208,0.62336377 1.46072,0.41557603 2.742295,1.01585233 3.844726,1.80082903 1.102431,0.7849768 1.970595,1.754654 2.604492,2.9090315 0.661459,1.13129 0.992189,2.412649 0.992189,3.8440769 0,0.8542398 -0.165365,1.7084798 -0.496094,2.5627188 -0.33073,0.854239 -0.813044,1.616128 -1.446941,2.285667 -0.606336,0.669539 -1.364257,1.223641 -2.273763,1.662304 -0.881944,0.415576 -1.874131,0.623364 -2.976562,0.623364 -1.240235,0 -2.356446,-0.242419 -3.348633,-0.727258 -0.992188,-0.484839 -1.79145,-1.165921 -2.397786,-2.043248 l 0.504364,9.4779 L 8.4666662,21.695832 9.7895828,3.4395832 12.699999,2.9104165 13.518552,10.181609 c 0.05166,0.458854 0.0689,0.935046 0.206706,1.419885 0.137803,0.484839 0.344509,0.923502 0.620117,1.315991 0.303168,0.369401 0.675238,0.681082 1.116211,0.935045 0.468532,0.230876 1.033527,0.346314 1.694986,0.346314 z" />
  </g>
</svg>
