<?xml version="1.0" encoding="UTF-8" standalone="no"?>
<!-- Created with Inkscape (http://www.inkscape.org/) -->

<svg
   width="50"
   height="50"
   viewBox="0 0 50 50"
   version="1.1"
   id="svg4452"
   inkscape:version="1.3 (0e150ed6c4, 2023-07-21)"
   xml:space="preserve"
   sodipodi:docname="zoom-out.svg"
   xmlns:inkscape="http://www.inkscape.org/namespaces/inkscape"
   xmlns:sodipodi="http://sodipodi.sourceforge.net/DTD/sodipodi-0.dtd"
   xmlns="http://www.w3.org/2000/svg"
   xmlns:svg="http://www.w3.org/2000/svg"><sodipodi:namedview
     id="namedview4454"
     pagecolor="#ffffff"
     bordercolor="#666666"
     borderopacity="1.0"
     inkscape:showpageshadow="2"
     inkscape:pageopacity="0.0"
     inkscape:pagecheckerboard="0"
     inkscape:deskcolor="#d1d1d1"
     inkscape:document-units="px"
     showgrid="true"
     inkscape:zoom="26.177093"
     inkscape:cx="35.508144"
     inkscape:cy="30.274561"
     inkscape:window-width="3840"
     inkscape:window-height="2089"
     inkscape:window-x="-8"
     inkscape:window-y="-8"
     inkscape:window-maximized="1"
     inkscape:current-layer="layer1"><inkscape:grid
       type="xygrid"
       id="grid4456"
       originx="0"
       originy="0"
       spacingy="1"
       spacingx="1"
       units="px"
       visible="true"
       empspacing="10" /></sodipodi:namedview><defs
     id="defs4449" /><g
     inkscape:label="Layer 1"
     inkscape:groupmode="layer"
     id="layer1"><path
       id="rect3"
       style="vector-effect:non-scaling-stroke;stroke-linejoin:bevel;-inkscape-stroke:hairline"
       d="M 14.017578 0.005859375 C 10.54245 0.11056173 7.0022535 1.5501627 4.0058594 4.7890625 C -7.1168591 16.81197 6.9264383 35.050722 21.623047 27.669922 L 23.716797 26.619141 L 24.839844 27.277344 C 25.458157 27.638831 26.542792 28.524872 27.25 29.248047 C 28.539589 30.566753 28.688831 30.894211 29.558594 34.285156 C 30.134138 36.529034 43.439929 49.373081 45.722656 49.888672 C 49.382641 50.715337 51.36184 46.739028 48.925781 43.453125 C 47.869289 42.028066 35.898303 30.169033 35.107422 29.763672 C 34.706605 29.558237 33.878179 29.307738 33.265625 29.207031 C 30.945852 28.825649 28.960621 27.336929 27.363281 24.783203 L 26.611328 23.580078 L 27.236328 22.587891 C 34.297348 11.393811 24.442962 -0.30824769 14.017578 0.005859375 z M 14.361328 2.8085938 C 15.628436 2.7598489 16.923513 2.9186796 18.203125 3.3144531 C 29.070582 6.6756698 29.464166 21.852901 18.787109 25.853516 C 10.507919 28.955668 1.6535923 21.709843 3.0097656 12.941406 C 3.9062338 7.1452235 8.8705261 3.0198213 14.361328 2.8085938 z M 7 13 L 7 17 L 23 17 L 23 13 L 7 13 z " /></g></svg>
