<?xml version="1.0" encoding="UTF-8" standalone="no"?>
<!-- Created with Inkscape (http://www.inkscape.org/) -->

<svg
   width="50"
   height="50"
   viewBox="0 0 50 50"
   version="1.1"
   id="svg4452"
   inkscape:version="1.3 (0e150ed6c4, 2023-07-21)"
   xml:space="preserve"
   sodipodi:docname="zoom-rst.svg"
   xmlns:inkscape="http://www.inkscape.org/namespaces/inkscape"
   xmlns:sodipodi="http://sodipodi.sourceforge.net/DTD/sodipodi-0.dtd"
   xmlns="http://www.w3.org/2000/svg"
   xmlns:svg="http://www.w3.org/2000/svg"><sodipodi:namedview
     id="namedview4454"
     pagecolor="#ffffff"
     bordercolor="#666666"
     borderopacity="1.0"
     inkscape:showpageshadow="2"
     inkscape:pageopacity="0.0"
     inkscape:pagecheckerboard="0"
     inkscape:deskcolor="#d1d1d1"
     inkscape:document-units="px"
     showgrid="true"
     inkscape:zoom="1.6360683"
     inkscape:cx="60.20531"
     inkscape:cy="202.00868"
     inkscape:window-width="3840"
     inkscape:window-height="2089"
     inkscape:window-x="-8"
     inkscape:window-y="-8"
     inkscape:window-maximized="1"
     inkscape:current-layer="layer1"><inkscape:grid
       type="xygrid"
       id="grid4456"
       originx="0"
       originy="0"
       spacingy="1"
       spacingx="1"
       units="px"
       visible="true"
       empspacing="10" /></sodipodi:namedview><defs
     id="defs4449" /><g
     inkscape:label="Layer 1"
     inkscape:groupmode="layer"
     id="layer1"><path
       style="fill:#ffffff;stroke-width:0.0977783"
       d="m 45.585185,49.892795 c 0.48288,-0.21764 4.31945,-4.15654 4.39422,-4.51143 0.12059,-0.57228 -0.10803,-0.82994 -5.71928,-6.44597 l -5.5688,-5.57354 2.54341,-2.54097 c 2.80219,-2.7995 2.89562,-2.92934 2.81423,-3.91059 -0.0599,-0.72207 -0.44046,-1.26634 -1.14143,-1.63243 l -0.5229,-0.27309 -7.83661,0.002 c -8.69347,0.002 -8.22651,-0.0314 -8.90185,0.64378 -0.67535,0.67516 -0.64157,0.20833 -0.64395,8.89947 l -0.002,7.83449 0.27317,0.52276 c 0.36619,0.70078 0.9106,1.08125 1.63287,1.14113 0.98151,0.0814 1.11138,-0.012 3.91163,-2.81348 l 2.54166,-2.54273 5.57504,5.56731 c 5.96535,5.95708 5.95377,5.94728 6.65074,5.63315 z m -21.9053,-25.07171 c 1.37332,-0.62981 1.31554,-0.2194 1.31804,-9.3617 l 0.002,-7.8344999 -0.27317,-0.52276 c -0.36619,-0.70078 -0.9106,-1.08124 -1.63287,-1.14112 -0.98149,-0.0814 -1.11141,0.0121 -3.91124,2.81308 l -2.54126,2.5423299 -5.62433,-5.6110299 c -6.01874,-6.00451998 -5.88663,-5.89189998 -6.56767,-5.59813998 -0.50018,0.21575 -4.34965,4.14530998 -4.42879,4.52092998 -0.12059,0.57228 0.10803,0.82995 5.71928,6.4459699 l 5.5688,5.57354 -2.54341,2.54098 c -2.80219,2.7995 -2.89562,2.92933 -2.81423,3.91058 0.0599,0.72207 0.44046,1.26634 1.14143,1.63243 l 0.52291,0.2731 7.8366,-0.002 c 7.39166,-0.002 7.85881,-0.0123 8.22776,-0.18154 z"
       id="path3" /></g></svg>
